<svg width="567" height="454" xmlns="http://www.w3.org/2000/svg" xmlns:xlink="http://www.w3.org/1999/xlink" xml:space="preserve" overflow="hidden"><defs><clipPath id="clip0"><rect x="0" y="0" width="567" height="454"/></clipPath></defs><g clip-path="url(#clip0)"><path d="M91.476 382.158 99.981 382.158M543.375 382.158 534.87 382.158" stroke="#000000" stroke-width="0.945" fill="none" transform="scale(1 1.00088)"/><text font-family="Arial,Arial_MSFontService,sans-serif" font-weight="400" font-size="12" transform="matrix(0.945 0 0 0.945833 43.9425 386)">-</text><text font-family="Arial,Arial_MSFontService,sans-serif" font-weight="400" font-size="12" transform="matrix(0.945 0 0 0.945833 47.7225 386)">7</text><text font-family="Arial,Arial_MSFontService,sans-serif" font-weight="400" font-size="12" transform="matrix(0.945 0 0 0.945833 54.3375 386)">.</text><text font-family="Arial,Arial_MSFontService,sans-serif" font-weight="400" font-size="12" transform="matrix(0.945 0 0 0.945833 57.1725 386)">8760</text><path d="M91.476 345.681 99.981 345.681M543.375 345.681 534.87 345.681" stroke="#000000" stroke-width="0.945" fill="none" transform="scale(1 1.00088)"/><text font-family="Arial,Arial_MSFontService,sans-serif" font-weight="400" font-size="12" transform="matrix(0.945 0 0 0.945833 43.9425 350)">-</text><text font-family="Arial,Arial_MSFontService,sans-serif" font-weight="400" font-size="12" transform="matrix(0.945 0 0 0.945833 47.7225 350)">7</text><text font-family="Arial,Arial_MSFontService,sans-serif" font-weight="400" font-size="12" transform="matrix(0.945 0 0 0.945833 54.3375 350)">.</text><text font-family="Arial,Arial_MSFontService,sans-serif" font-weight="400" font-size="12" transform="matrix(0.945 0 0 0.945833 57.1725 350)">8755</text><path d="M91.476 309.109 99.981 309.109M543.375 309.109 534.87 309.109" stroke="#000000" stroke-width="0.945" fill="none" transform="scale(1 1.00088)"/><text font-family="Arial,Arial_MSFontService,sans-serif" font-weight="400" font-size="12" transform="matrix(0.945 0 0 0.945833 43.9425 313)">-</text><text font-family="Arial,Arial_MSFontService,sans-serif" font-weight="400" font-size="12" transform="matrix(0.945 0 0 0.945833 47.7225 313)">7</text><text font-family="Arial,Arial_MSFontService,sans-serif" font-weight="400" font-size="12" transform="matrix(0.945 0 0 0.945833 54.3375 313)">.</text><text font-family="Arial,Arial_MSFontService,sans-serif" font-weight="400" font-size="12" transform="matrix(0.945 0 0 0.945833 57.1725 313)">8750</text><path d="M91.476 272.633 99.981 272.633M543.375 272.633 534.87 272.633" stroke="#000000" stroke-width="0.945" fill="none" transform="scale(1 1.00088)"/><text font-family="Arial,Arial_MSFontService,sans-serif" font-weight="400" font-size="12" transform="matrix(0.945 0 0 0.945833 43.9425 277)">-</text><text font-family="Arial,Arial_MSFontService,sans-serif" font-weight="400" font-size="12" transform="matrix(0.945 0 0 0.945833 47.7225 277)">7</text><text font-family="Arial,Arial_MSFontService,sans-serif" font-weight="400" font-size="12" transform="matrix(0.945 0 0 0.945833 54.3375 277)">.</text><text font-family="Arial,Arial_MSFontService,sans-serif" font-weight="400" font-size="12" transform="matrix(0.945 0 0 0.945833 57.1725 277)">8745</text><path d="M91.476 236.155 99.981 236.155M543.375 236.155 534.87 236.155" stroke="#000000" stroke-width="0.945" fill="none" transform="scale(1 1.00088)"/><text font-family="Arial,Arial_MSFontService,sans-serif" font-weight="400" font-size="12" transform="matrix(0.945 0 0 0.945833 43.9425 240)">-</text><text font-family="Arial,Arial_MSFontService,sans-serif" font-weight="400" font-size="12" transform="matrix(0.945 0 0 0.945833 47.7225 240)">7</text><text font-family="Arial,Arial_MSFontService,sans-serif" font-weight="400" font-size="12" transform="matrix(0.945 0 0 0.945833 54.3375 240)">.</text><text font-family="Arial,Arial_MSFontService,sans-serif" font-weight="400" font-size="12" transform="matrix(0.945 0 0 0.945833 57.1725 240)">8740</text><path d="M91.476 199.678 99.981 199.678M543.375 199.678 534.87 199.678" stroke="#000000" stroke-width="0.945" fill="none" transform="scale(1 1.00088)"/><text font-family="Arial,Arial_MSFontService,sans-serif" font-weight="400" font-size="12" transform="matrix(0.945 0 0 0.945833 43.9425 204)">-</text><text font-family="Arial,Arial_MSFontService,sans-serif" font-weight="400" font-size="12" transform="matrix(0.945 0 0 0.945833 47.7225 204)">7</text><text font-family="Arial,Arial_MSFontService,sans-serif" font-weight="400" font-size="12" transform="matrix(0.945 0 0 0.945833 54.3375 204)">.</text><text font-family="Arial,Arial_MSFontService,sans-serif" font-weight="400" font-size="12" transform="matrix(0.945 0 0 0.945833 57.1725 204)">8735</text><path d="M91.476 163.107 99.981 163.107M543.375 163.107 534.87 163.107" stroke="#000000" stroke-width="0.945" fill="none" transform="scale(1 1.00088)"/><text font-family="Arial,Arial_MSFontService,sans-serif" font-weight="400" font-size="12" transform="matrix(0.945 0 0 0.945833 43.9425 167)">-</text><text font-family="Arial,Arial_MSFontService,sans-serif" font-weight="400" font-size="12" transform="matrix(0.945 0 0 0.945833 47.7225 167)">7</text><text font-family="Arial,Arial_MSFontService,sans-serif" font-weight="400" font-size="12" transform="matrix(0.945 0 0 0.945833 54.3375 167)">.</text><text font-family="Arial,Arial_MSFontService,sans-serif" font-weight="400" font-size="12" transform="matrix(0.945 0 0 0.945833 57.1725 167)">8730</text><path d="M91.476 126.63 99.981 126.63M543.375 126.63 534.87 126.63" stroke="#000000" stroke-width="0.945" fill="none" transform="scale(1 1.00088)"/><text font-family="Arial,Arial_MSFontService,sans-serif" font-weight="400" font-size="12" transform="matrix(0.945 0 0 0.945833 43.9425 130)">-</text><text font-family="Arial,Arial_MSFontService,sans-serif" font-weight="400" font-size="12" transform="matrix(0.945 0 0 0.945833 47.7225 130)">7</text><text font-family="Arial,Arial_MSFontService,sans-serif" font-weight="400" font-size="12" transform="matrix(0.945 0 0 0.945833 54.3375 130)">.</text><text font-family="Arial,Arial_MSFontService,sans-serif" font-weight="400" font-size="12" transform="matrix(0.945 0 0 0.945833 57.1725 130)">8725</text><path d="M91.476 90.153 99.981 90.153M543.375 90.153 534.87 90.153" stroke="#000000" stroke-width="0.945" fill="none" transform="scale(1 1.00088)"/><text font-family="Arial,Arial_MSFontService,sans-serif" font-weight="400" font-size="12" transform="matrix(0.945 0 0 0.945833 43.9425 94)">-</text><text font-family="Arial,Arial_MSFontService,sans-serif" font-weight="400" font-size="12" transform="matrix(0.945 0 0 0.945833 47.7225 94)">7</text><text font-family="Arial,Arial_MSFontService,sans-serif" font-weight="400" font-size="12" transform="matrix(0.945 0 0 0.945833 54.3375 94)">.</text><text font-family="Arial,Arial_MSFontService,sans-serif" font-weight="400" font-size="12" transform="matrix(0.945 0 0 0.945833 57.1725 94)">8720</text><path d="M91.476 53.5815 99.981 53.5815M543.375 53.5815 534.87 53.5815" stroke="#000000" stroke-width="0.945" fill="none" transform="scale(1 1.00088)"/><text font-family="Arial,Arial_MSFontService,sans-serif" font-weight="400" font-size="12" transform="matrix(0.945 0 0 0.945833 43.9425 57)">-</text><text font-family="Arial,Arial_MSFontService,sans-serif" font-weight="400" font-size="12" transform="matrix(0.945 0 0 0.945833 47.7225 57)">7</text><text font-family="Arial,Arial_MSFontService,sans-serif" font-weight="400" font-size="12" transform="matrix(0.945 0 0 0.945833 54.3375 57)">.</text><text font-family="Arial,Arial_MSFontService,sans-serif" font-weight="400" font-size="12" transform="matrix(0.945 0 0 0.945833 57.1725 57)">8715</text><path d="M91.476 17.1045 99.981 17.1045M543.375 17.1045 534.87 17.1045" stroke="#000000" stroke-width="0.945" fill="none" transform="scale(1 1.00088)"/><text font-family="Arial,Arial_MSFontService,sans-serif" font-weight="400" font-size="12" transform="matrix(0.945 0 0 0.945833 43.9425 21)">-</text><text font-family="Arial,Arial_MSFontService,sans-serif" font-weight="400" font-size="12" transform="matrix(0.945 0 0 0.945833 47.7225 21)">7</text><text font-family="Arial,Arial_MSFontService,sans-serif" font-weight="400" font-size="12" transform="matrix(0.945 0 0 0.945833 54.3375 21)">.</text><text font-family="Arial,Arial_MSFontService,sans-serif" font-weight="400" font-size="12" transform="matrix(0.945 0 0 0.945833 57.1725 21)">8710</text><path d="M91.476 382.158 91.476 373.653M91.476 17.1045 91.476 25.6095" stroke="#000000" stroke-width="0.945" fill="none" transform="scale(1 1.00088)"/><text font-family="Arial,Arial_MSFontService,sans-serif" font-weight="400" font-size="12" transform="matrix(0.945 0 0 0.945833 78.246 403)">1000</text><path d="M204.498 382.158 204.498 373.653M204.498 17.1045 204.498 25.6095" stroke="#000000" stroke-width="0.945" fill="none" transform="scale(1 1.00088)"/><text font-family="Arial,Arial_MSFontService,sans-serif" font-weight="400" font-size="12" transform="matrix(0.945 0 0 0.945833 191.268 403)">1050</text><path d="M317.426 382.158 317.426 373.653M317.426 17.1045 317.426 25.6095" stroke="#000000" stroke-width="0.945" fill="none" transform="scale(1 1.00088)"/><text font-family="Arial,Arial_MSFontService,sans-serif" font-weight="400" font-size="12" transform="matrix(0.945 0 0 0.945833 304.668 403)">1100</text><path d="M430.448 382.158 430.448 373.653M430.448 17.1045 430.448 25.6095" stroke="#000000" stroke-width="0.945" fill="none" transform="scale(1 1.00088)"/><text font-family="Arial,Arial_MSFontService,sans-serif" font-weight="400" font-size="12" transform="matrix(0.945 0 0 0.945833 417.69 403)">1150</text><path d="M543.375 382.158 543.375 373.653M543.375 17.1045 543.375 25.6095" stroke="#000000" stroke-width="0.945" fill="none" transform="scale(1 1.00088)"/><text font-family="Arial,Arial_MSFontService,sans-serif" font-weight="400" font-size="12" transform="matrix(0.945 0 0 0.945833 530.145 403)">1200</text><path d="M91.476 17.1045 91.476 382.158 543.375 382.158 543.375 17.1045 91.476 17.1045Z" stroke="#000000" stroke-width="0.945" fill="none" transform="scale(1 1.00088)"/><text font-family="Arial,Arial_MSFontService,sans-serif" font-weight="400" font-size="12" transform="matrix(-1.73594e-16 -0.945833 0.945 -1.73747e-16 17.955 242)">energy </text><text font-family="Arial,Arial_MSFontService,sans-serif" font-weight="400" font-size="12" transform="matrix(-1.73594e-16 -0.945833 0.945 -1.73747e-16 17.955 204)">(</text><text font-family="Arial,Arial_MSFontService,sans-serif" font-weight="400" font-size="12" transform="matrix(-1.73594e-16 -0.945833 0.945 -1.73747e-16 17.955 200)">Hartree</text><text font-family="Arial,Arial_MSFontService,sans-serif" font-weight="400" font-size="12" transform="matrix(-1.73594e-16 -0.945833 0.945 -1.73747e-16 17.955 162)">)</text><text font-family="Arial,Arial_MSFontService,sans-serif" font-weight="400" font-size="12" transform="matrix(0.945 0 0 0.945833 278.208 429)">volume </text><text font-family="Arial,Arial_MSFontService,sans-serif" font-weight="400" font-size="12" transform="matrix(0.945 0 0 0.945833 318.843 429)">(</text><text font-family="Arial,Arial_MSFontService,sans-serif" font-weight="400" font-size="12" transform="matrix(0.945 0 0 0.945833 322.623 429)">Bohr</text><text font-family="Arial,Arial_MSFontService,sans-serif" font-weight="400" font-size="10" transform="matrix(0.945 0 0 0.945833 347.193 423)">3</text><text font-family="Arial,Arial_MSFontService,sans-serif" font-weight="400" font-size="12" transform="matrix(0.945 0 0 0.945833 352.863 429)">)</text><text font-family="Arial,Arial_MSFontService,sans-serif" font-weight="400" font-size="12" transform="matrix(0.945 0 0 0.945833 410.035 38)">Murnaghan fit</text><path d="M487.809 34.1145 527.688 34.1145M91.476 31.6575 96.012 45.0765 100.643 58.1175 105.179 70.7805 109.715 83.16 114.345 95.256 118.881 106.974 123.417 118.409 127.953 129.465 132.583 140.333 137.12 150.822 141.655 161.028 146.286 170.856 150.822 180.495 155.358 189.756 159.988 198.828 164.525 207.522 169.06 216.027 173.596 224.154 178.227 231.997 182.763 239.652 187.299 246.928 191.93 254.016 196.465 260.82 201.001 267.34 205.632 273.672 210.168 279.625 214.704 285.39 219.24 290.871 223.87 296.163 228.406 301.172 232.943 305.897 237.573 310.432 242.109 314.685 246.645 318.654 251.275 322.434 255.812 326.025 260.348 329.332 264.978 332.451 269.514 335.286 274.05 337.932 278.586 340.389 283.217 342.562 287.753 344.547 292.288 346.248 296.919 347.76 301.455 349.083 305.991 350.217 310.622 351.162 315.158 351.823 319.693 352.296 324.229 352.674 328.86 352.674 333.396 352.579 337.932 352.296 342.562 351.823 347.098 351.068 351.634 350.217 356.265 349.177 360.801 347.854 365.337 346.437 369.873 344.736 374.503 342.94 379.039 340.956 383.576 338.783 388.206 336.42 392.742 333.868 397.278 331.223 401.908 328.293 406.444 325.269 410.98 322.056 415.611 318.654 420.147 315.063 424.683 311.378 429.219 307.503 433.849 303.44 438.385 299.187 442.922 294.84 447.552 290.304 452.088 285.579 456.624 280.759 461.255 275.751 465.79 270.648 470.327 265.356 474.862 259.875 479.493 254.299 484.029 248.535 488.565 242.676 493.196 236.628 497.732 230.485 502.267 224.154 506.898 217.728 511.434 211.113 515.97 204.404 520.506 197.6 525.137 190.512 529.672 183.424 534.208 176.148 538.839 168.777 543.375 161.217" stroke="#9400D3" stroke-width="0.945" fill="none" transform="scale(1 1.00088)"/><text font-family="Arial,Arial_MSFontService,sans-serif" font-weight="400" font-size="12" transform="matrix(0.945 0 0 0.945833 427.046 55)">calculated</text><path d="M4.2525 0C4.2525 2.34859 2.34859 4.2525 -9.44245e-16 4.2525-2.34859 4.2525-4.2525 2.34859-4.2525 4.72122e-16-4.2525-2.34859-2.34859-4.2525 -4.72122e-16-4.2525 2.34859-4.2525 4.2525-2.34859 4.2525 0Z" stroke="#9400D3" stroke-width="0.944055" fill="none" transform="matrix(1 0 0 1.00088 91.476 31.5908)"/><path d="M4.2525 0C4.2525 2.34859 2.34859 4.2525 -9.44245e-16 4.2525-2.34859 4.2525-4.2525 2.34859-4.2525 4.72122e-16-4.2525-2.34859-2.34859-4.2525 -4.72122e-16-4.2525 2.34859-4.2525 4.2525-2.34859 4.2525 0Z" stroke="#9400D3" stroke-width="0.944055" fill="none" transform="matrix(1 0 0 1.00088 114.062 94.3942)"/><path d="M4.2525 0C4.2525 2.34859 2.34859 4.2525 -9.44245e-16 4.2525-2.34859 4.2525-4.2525 2.34859-4.2525 4.72122e-16-4.2525-2.34859-2.34859-4.2525 -4.72122e-16-4.2525 2.34859-4.2525 4.2525-2.34859 4.2525 0Z" stroke="#9400D3" stroke-width="0.944055" fill="none" transform="matrix(1 0 0 1.00088 136.647 150.671)"/><path d="M4.2525 0C4.2525 2.34859 2.34859 4.2525 -9.44245e-16 4.2525-2.34859 4.2525-4.2525 2.34859-4.2525 4.72122e-16-4.2525-2.34859-2.34859-4.2525 -4.72122e-16-4.2525 2.34859-4.2525 4.2525-2.34859 4.2525 0Z" stroke="#9400D3" stroke-width="0.944055" fill="none" transform="matrix(1 0 0 1.00088 159.232 198.057)"/><path d="M4.2525 0C4.2525 2.34859 2.34859 4.2525 -9.44245e-16 4.2525-2.34859 4.2525-4.2525 2.34859-4.2525 4.72122e-16-4.2525-2.34859-2.34859-4.2525 -4.72122e-16-4.2525 2.34859-4.2525 4.2525-2.34859 4.2525 0Z" stroke="#9400D3" stroke-width="0.944055" fill="none" transform="matrix(1 0 0 1.00088 181.818 238.161)"/><path d="M4.2525 0C4.2525 2.34859 2.34859 4.2525 -9.44245e-16 4.2525-2.34859 4.2525-4.2525 2.34859-4.2525 4.72122e-16-4.2525-2.34859-2.34859-4.2525 -4.72122e-16-4.2525 2.34859-4.2525 4.2525-2.34859 4.2525 0Z" stroke="#9400D3" stroke-width="0.944055" fill="none" transform="matrix(1 0 0 1.00088 204.498 272.495)"/><path d="M4.2525 0C4.2525 2.34859 2.34859 4.2525 -9.44245e-16 4.2525-2.34859 4.2525-4.2525 2.34859-4.2525 4.72122e-16-4.2525-2.34859-2.34859-4.2525 -4.72122e-16-4.2525 2.34859-4.2525 4.2525-2.34859 4.2525 0Z" stroke="#9400D3" stroke-width="0.944055" fill="none" transform="matrix(1 0 0 1.00088 227.083 299.073)"/><path d="M4.2525 0C4.2525 2.34859 2.34859 4.2525 -9.44245e-16 4.2525-2.34859 4.2525-4.2525 2.34859-4.2525 4.72122e-16-4.2525-2.34859-2.34859-4.2525 -4.72122e-16-4.2525 2.34859-4.2525 4.2525-2.34859 4.2525 0Z" stroke="#9400D3" stroke-width="0.944055" fill="none" transform="matrix(1 0 0 1.00088 249.669 320.921)"/><path d="M4.2525 0C4.2525 2.34859 2.34859 4.2525 -9.44245e-16 4.2525-2.34859 4.2525-4.2525 2.34859-4.2525 4.72122e-16-4.2525-2.34859-2.34859-4.2525 -4.72122e-16-4.2525 2.34859-4.2525 4.2525-2.34859 4.2525 0Z" stroke="#9400D3" stroke-width="0.944055" fill="none" transform="matrix(1 0 0 1.00088 272.254 337.473)"/><path d="M4.2525 0C4.2525 2.34859 2.34859 4.2525 -9.44245e-16 4.2525-2.34859 4.2525-4.2525 2.34859-4.2525 4.72122e-16-4.2525-2.34859-2.34859-4.2525 -4.72122e-16-4.2525 2.34859-4.2525 4.2525-2.34859 4.2525 0Z" stroke="#9400D3" stroke-width="0.944055" fill="none" transform="matrix(1 0 0 1.00088 294.84 347.499)"/><path d="M4.2525 0C4.2525 2.34859 2.34859 4.2525 -9.44245e-16 4.2525-2.34859 4.2525-4.2525 2.34859-4.2525 4.72122e-16-4.2525-2.34859-2.34859-4.2525 -4.72122e-16-4.2525 2.34859-4.2525 4.2525-2.34859 4.2525 0Z" stroke="#9400D3" stroke-width="0.944055" fill="none" transform="matrix(1 0 0 1.00088 317.426 352.701)"/><path d="M4.2525 0C4.2525 2.34859 2.34859 4.2525 -9.44245e-16 4.2525-2.34859 4.2525-4.2525 2.34859-4.2525 4.72122e-16-4.2525-2.34859-2.34859-4.2525 -4.72122e-16-4.2525 2.34859-4.2525 4.2525-2.34859 4.2525 0Z" stroke="#9400D3" stroke-width="0.944055" fill="none" transform="matrix(1 0 0 1.00088 340.011 353.174)"/><path d="M4.2525 0C4.2525 2.34859 2.34859 4.2525 -9.44245e-16 4.2525-2.34859 4.2525-4.2525 2.34859-4.2525 4.72122e-16-4.2525-2.34859-2.34859-4.2525 -4.72122e-16-4.2525 2.34859-4.2525 4.2525-2.34859 4.2525 0Z" stroke="#9400D3" stroke-width="0.944055" fill="none" transform="matrix(1 0 0 1.00088 362.596 347.878)"/><path d="M4.2525 0C4.2525 2.34859 2.34859 4.2525 -9.44245e-16 4.2525-2.34859 4.2525-4.2525 2.34859-4.2525 4.72122e-16-4.2525-2.34859-2.34859-4.2525 -4.72122e-16-4.2525 2.34859-4.2525 4.2525-2.34859 4.2525 0Z" stroke="#9400D3" stroke-width="0.944055" fill="none" transform="matrix(1 0 0 1.00088 385.182 338.041)"/><path d="M4.2525 0C4.2525 2.34859 2.34859 4.2525 -9.44245e-16 4.2525-2.34859 4.2525-4.2525 2.34859-4.2525 4.72122e-16-4.2525-2.34859-2.34859-4.2525 -4.72122e-16-4.2525 2.34859-4.2525 4.2525-2.34859 4.2525 0Z" stroke="#9400D3" stroke-width="0.944055" fill="none" transform="matrix(1 0 0 1.00088 407.767 323.759)"/><path d="M4.2525 0C4.2525 2.34859 2.34859 4.2525 -9.44245e-16 4.2525-2.34859 4.2525-4.2525 2.34859-4.2525 4.72122e-16-4.2525-2.34859-2.34859-4.2525 -4.72122e-16-4.2525 2.34859-4.2525 4.2525-2.34859 4.2525 0Z" stroke="#9400D3" stroke-width="0.944055" fill="none" transform="matrix(1 0 0 1.00088 430.448 306.923)"/><path d="M4.2525 0C4.2525 2.34859 2.34859 4.2525 -9.44245e-16 4.2525-2.34859 4.2525-4.2525 2.34859-4.2525 4.72122e-16-4.2525-2.34859-2.34859-4.2525 -4.72122e-16-4.2525 2.34859-4.2525 4.2525-2.34859 4.2525 0Z" stroke="#9400D3" stroke-width="0.944055" fill="none" transform="matrix(1 0 0 1.00088 453.033 285.169)"/><path d="M4.2525 0C4.2525 2.34859 2.34859 4.2525 -9.44245e-16 4.2525-2.34859 4.2525-4.2525 2.34859-4.2525 4.72122e-16-4.2525-2.34859-2.34859-4.2525 -4.72122e-16-4.2525 2.34859-4.2525 4.2525-2.34859 4.2525 0Z" stroke="#9400D3" stroke-width="0.944055" fill="none" transform="matrix(1 0 0 1.00088 475.618 259.253)"/><path d="M4.2525 0C4.2525 2.34859 2.34859 4.2525 -9.44245e-16 4.2525-2.34859 4.2525-4.2525 2.34859-4.2525 4.72122e-16-4.2525-2.34859-2.34859-4.2525 -4.72122e-16-4.2525 2.34859-4.2525 4.2525-2.34859 4.2525 0Z" stroke="#9400D3" stroke-width="0.944055" fill="none" transform="matrix(1 0 0 1.00088 498.204 230.5)"/><path d="M4.2525 0C4.2525 2.34859 2.34859 4.2525 -9.44245e-16 4.2525-2.34859 4.2525-4.2525 2.34859-4.2525 4.72122e-16-4.2525-2.34859-2.34859-4.2525 -4.72122e-16-4.2525 2.34859-4.2525 4.2525-2.34859 4.2525 0Z" stroke="#9400D3" stroke-width="0.944055" fill="none" transform="matrix(1 0 0 1.00088 520.789 196.544)"/><path d="M4.2525 0C4.2525 2.34859 2.34859 4.2525 -9.44245e-16 4.2525-2.34859 4.2525-4.2525 2.34859-4.2525 4.72122e-16-4.2525-2.34859-2.34859-4.2525 -4.72122e-16-4.2525 2.34859-4.2525 4.2525-2.34859 4.2525 0Z" stroke="#9400D3" stroke-width="0.944055" fill="none" transform="matrix(1 0 0 1.00088 543.375 161.738)"/><path d="M4.2525 0C4.2525 2.34859 2.34859 4.2525 -9.44245e-16 4.2525-2.34859 4.2525-4.2525 2.34859-4.2525 4.72122e-16-4.2525-2.34859-2.34859-4.2525 -4.72122e-16-4.2525 2.34859-4.2525 4.2525-2.34859 4.2525 0Z" stroke="#9400D3" stroke-width="0.944055" fill="none" transform="matrix(1 0 0 1.00088 507.749 51.1696)"/><path d="M91.476 17.1045 91.476 382.158 543.375 382.158 543.375 17.1045 91.476 17.1045Z" stroke="#000000" stroke-width="0.945" fill="none" transform="scale(1 1.00088)"/></g></svg>