<?xml version="1.0" encoding="UTF-8" standalone="no"?>
<!-- Created with Inkscape (http://www.inkscape.org/) -->

<svg
   version="1.1"
   id="svg2"
   xml:space="preserve"
   width="480"
   height="336"
   viewBox="0 0 480 336"
   sodipodi:docname="workfunc.svg"
   inkscape:version="1.1.2 (0a00cf5339, 2022-02-04)"
   xmlns:inkscape="http://www.inkscape.org/namespaces/inkscape"
   xmlns:sodipodi="http://sodipodi.sourceforge.net/DTD/sodipodi-0.dtd"
   xmlns="http://www.w3.org/2000/svg"
   xmlns:svg="http://www.w3.org/2000/svg"><defs
     id="defs6" /><sodipodi:namedview
     id="namedview4"
     pagecolor="#ffffff"
     bordercolor="#666666"
     borderopacity="1.0"
     inkscape:pageshadow="2"
     inkscape:pageopacity="0.0"
     inkscape:pagecheckerboard="0"
     showgrid="false"
     inkscape:zoom="2.5982143"
     inkscape:cx="239.97251"
     inkscape:cy="167.80756"
     inkscape:window-width="3840"
     inkscape:window-height="2137"
     inkscape:window-x="0"
     inkscape:window-y="23"
     inkscape:window-maximized="1"
     inkscape:current-layer="g8" /><g
     id="g8"
     inkscape:groupmode="layer"
     inkscape:label="ink_ext_XXXXXX"
     transform="matrix(1.3333333,0,0,-1.3333333,0,336)"><g
       id="g10"
       transform="scale(0.1)"><path
         d="m 387,288 h 31.5 m 3019,0 H 3406"
         style="fill:none;stroke:#000000;stroke-width:2.5;stroke-linecap:butt;stroke-linejoin:miter;stroke-miterlimit:3.8;stroke-dasharray:none;stroke-opacity:1"
         id="path12" /><g
         id="g14"
         transform="scale(10)"><text
           transform="matrix(1,0,0,-1,18.0363,25.8)"
           style="font-variant:normal;font-weight:normal;font-size:9px;font-family:Helvetica;-inkscape-font-specification:Helvetica;writing-mode:lr-tb;fill:#000000;fill-opacity:1;fill-rule:nonzero;stroke:none"
           id="text18"><tspan
             x="0 5.256 10.26"
             y="0"
             sodipodi:role="line"
             id="tspan16">−16</tspan></text></g><path
         d="m 387,502 h 31.5 m 3019,0 H 3406"
         style="fill:none;stroke:#000000;stroke-width:2.5;stroke-linecap:butt;stroke-linejoin:miter;stroke-miterlimit:3.8;stroke-dasharray:none;stroke-opacity:1"
         id="path20" /><g
         id="g22"
         transform="scale(10)"><text
           transform="matrix(1,0,0,-1,18.0363,47.2)"
           style="font-variant:normal;font-weight:normal;font-size:9px;font-family:Helvetica;-inkscape-font-specification:Helvetica;writing-mode:lr-tb;fill:#000000;fill-opacity:1;fill-rule:nonzero;stroke:none"
           id="text26"><tspan
             x="0 5.256 10.26"
             y="0"
             sodipodi:role="line"
             id="tspan24">−14</tspan></text></g><path
         d="m 387,716.5 h 31.5 m 3019,0 H 3406"
         style="fill:none;stroke:#000000;stroke-width:2.5;stroke-linecap:butt;stroke-linejoin:miter;stroke-miterlimit:3.8;stroke-dasharray:none;stroke-opacity:1"
         id="path28" /><g
         id="g30"
         transform="scale(10)"><text
           transform="matrix(1,0,0,-1,18.0363,68.65)"
           style="font-variant:normal;font-weight:normal;font-size:9px;font-family:Helvetica;-inkscape-font-specification:Helvetica;writing-mode:lr-tb;fill:#000000;fill-opacity:1;fill-rule:nonzero;stroke:none"
           id="text34"><tspan
             x="0 5.256 10.26"
             y="0"
             sodipodi:role="line"
             id="tspan32">−12</tspan></text></g><path
         d="m 387,930.5 h 31.5 m 3019,0 H 3406"
         style="fill:none;stroke:#000000;stroke-width:2.5;stroke-linecap:butt;stroke-linejoin:miter;stroke-miterlimit:3.8;stroke-dasharray:none;stroke-opacity:1"
         id="path36" /><g
         id="g38"
         transform="scale(10)"><text
           transform="matrix(1,0,0,-1,18.0363,90.05)"
           style="font-variant:normal;font-weight:normal;font-size:9px;font-family:Helvetica;-inkscape-font-specification:Helvetica;writing-mode:lr-tb;fill:#000000;fill-opacity:1;fill-rule:nonzero;stroke:none"
           id="text42"><tspan
             x="0 5.256 10.26"
             y="0"
             sodipodi:role="line"
             id="tspan40">−10</tspan></text></g><path
         d="m 387,1144.5 h 31.5 m 3019,0 H 3406"
         style="fill:none;stroke:#000000;stroke-width:2.5;stroke-linecap:butt;stroke-linejoin:miter;stroke-miterlimit:3.8;stroke-dasharray:none;stroke-opacity:1"
         id="path44" /><g
         id="g46"
         transform="scale(10)"><text
           transform="matrix(1,0,0,-1,23.0402,111.45)"
           style="font-variant:normal;font-weight:normal;font-size:9px;font-family:Helvetica;-inkscape-font-specification:Helvetica;writing-mode:lr-tb;fill:#000000;fill-opacity:1;fill-rule:nonzero;stroke:none"
           id="text50"><tspan
             x="0 5.256"
             y="0"
             sodipodi:role="line"
             id="tspan48">−8</tspan></text></g><path
         d="m 387,1359 h 31.5 m 3019,0 H 3406"
         style="fill:none;stroke:#000000;stroke-width:2.5;stroke-linecap:butt;stroke-linejoin:miter;stroke-miterlimit:3.8;stroke-dasharray:none;stroke-opacity:1"
         id="path52" /><g
         id="g54"
         transform="scale(10)"><text
           transform="matrix(1,0,0,-1,23.0402,132.9)"
           style="font-variant:normal;font-weight:normal;font-size:9px;font-family:Helvetica;-inkscape-font-specification:Helvetica;writing-mode:lr-tb;fill:#000000;fill-opacity:1;fill-rule:nonzero;stroke:none"
           id="text58"><tspan
             x="0 5.256"
             y="0"
             sodipodi:role="line"
             id="tspan56">−6</tspan></text></g><path
         d="m 387,1573 h 31.5 m 3019,0 H 3406"
         style="fill:none;stroke:#000000;stroke-width:2.5;stroke-linecap:butt;stroke-linejoin:miter;stroke-miterlimit:3.8;stroke-dasharray:none;stroke-opacity:1"
         id="path60" /><g
         id="g62"
         transform="scale(10)"><text
           transform="matrix(1,0,0,-1,23.0402,154.3)"
           style="font-variant:normal;font-weight:normal;font-size:9px;font-family:Helvetica;-inkscape-font-specification:Helvetica;writing-mode:lr-tb;fill:#000000;fill-opacity:1;fill-rule:nonzero;stroke:none"
           id="text66"><tspan
             x="0 5.256"
             y="0"
             sodipodi:role="line"
             id="tspan64">−4</tspan></text></g><path
         d="m 387,1787 h 31.5 m 3019,0 H 3406"
         style="fill:none;stroke:#000000;stroke-width:2.5;stroke-linecap:butt;stroke-linejoin:miter;stroke-miterlimit:3.8;stroke-dasharray:none;stroke-opacity:1"
         id="path68" /><g
         id="g70"
         transform="scale(10)"><text
           transform="matrix(1,0,0,-1,23.0402,175.7)"
           style="font-variant:normal;font-weight:normal;font-size:9px;font-family:Helvetica;-inkscape-font-specification:Helvetica;writing-mode:lr-tb;fill:#000000;fill-opacity:1;fill-rule:nonzero;stroke:none"
           id="text74"><tspan
             x="0 5.256"
             y="0"
             sodipodi:role="line"
             id="tspan72">−2</tspan></text></g><path
         d="m 387,2001 h 31.5 m 3019,0 H 3406"
         style="fill:none;stroke:#000000;stroke-width:2.5;stroke-linecap:butt;stroke-linejoin:miter;stroke-miterlimit:3.8;stroke-dasharray:none;stroke-opacity:1"
         id="path76" /><g
         id="g78"
         transform="scale(10)"><text
           transform="matrix(1,0,0,-1,28.2961,197.1)"
           style="font-variant:normal;font-weight:normal;font-size:9px;font-family:Helvetica;-inkscape-font-specification:Helvetica;writing-mode:lr-tb;fill:#000000;fill-opacity:1;fill-rule:nonzero;stroke:none"
           id="text82"><tspan
             x="0"
             y="0"
             id="tspan80">0</tspan></text></g><path
         d="m 387,2215.5 h 31.5 m 3019,0 H 3406"
         style="fill:none;stroke:#000000;stroke-width:2.5;stroke-linecap:butt;stroke-linejoin:miter;stroke-miterlimit:3.8;stroke-dasharray:none;stroke-opacity:1"
         id="path84" /><g
         id="g86"
         transform="scale(10)"><text
           transform="matrix(1,0,0,-1,28.2961,218.55)"
           style="font-variant:normal;font-weight:normal;font-size:9px;font-family:Helvetica;-inkscape-font-specification:Helvetica;writing-mode:lr-tb;fill:#000000;fill-opacity:1;fill-rule:nonzero;stroke:none"
           id="text90"><tspan
             x="0"
             y="0"
             id="tspan88">2</tspan></text></g><path
         d="m 387,2429.5 h 31.5 m 3019,0 H 3406"
         style="fill:none;stroke:#000000;stroke-width:2.5;stroke-linecap:butt;stroke-linejoin:miter;stroke-miterlimit:3.8;stroke-dasharray:none;stroke-opacity:1"
         id="path92" /><g
         id="g94"
         transform="scale(10)"><text
           transform="matrix(1,0,0,-1,28.2961,239.95)"
           style="font-variant:normal;font-weight:normal;font-size:9px;font-family:Helvetica;-inkscape-font-specification:Helvetica;writing-mode:lr-tb;fill:#000000;fill-opacity:1;fill-rule:nonzero;stroke:none"
           id="text98"><tspan
             x="0"
             y="0"
             id="tspan96">4</tspan></text></g><path
         d="m 387,288 v 31.5 m 0,2110 V 2398"
         style="fill:none;stroke:#000000;stroke-width:2.5;stroke-linecap:butt;stroke-linejoin:miter;stroke-miterlimit:3.8;stroke-dasharray:none;stroke-opacity:1"
         id="path100" /><g
         id="g102"
         transform="scale(10)"><text
           transform="matrix(1,0,0,-1,37.4493,16.8)"
           style="font-variant:normal;font-weight:normal;font-size:9px;font-family:Helvetica;-inkscape-font-specification:Helvetica;writing-mode:lr-tb;fill:#000000;fill-opacity:1;fill-rule:nonzero;stroke:none"
           id="text106"><tspan
             x="0"
             y="0"
             id="tspan104">0</tspan></text></g><path
         d="m 823,288 v 31.5 m 0,2110 V 2398"
         style="fill:none;stroke:#000000;stroke-width:2.5;stroke-linecap:butt;stroke-linejoin:miter;stroke-miterlimit:3.8;stroke-dasharray:none;stroke-opacity:1"
         id="path108" /><g
         id="g110"
         transform="scale(10)"><text
           transform="matrix(1,0,0,-1,81.0493,16.8)"
           style="font-variant:normal;font-weight:normal;font-size:9px;font-family:Helvetica;-inkscape-font-specification:Helvetica;writing-mode:lr-tb;fill:#000000;fill-opacity:1;fill-rule:nonzero;stroke:none"
           id="text114"><tspan
             x="0"
             y="0"
             id="tspan112">2</tspan></text></g><path
         d="m 1258.5,288 v 31.5 m 0,2110 V 2398"
         style="fill:none;stroke:#000000;stroke-width:2.5;stroke-linecap:butt;stroke-linejoin:miter;stroke-miterlimit:3.8;stroke-dasharray:none;stroke-opacity:1"
         id="path116" /><g
         id="g118"
         transform="scale(10)"><text
           transform="matrix(1,0,0,-1,124.599,16.8)"
           style="font-variant:normal;font-weight:normal;font-size:9px;font-family:Helvetica;-inkscape-font-specification:Helvetica;writing-mode:lr-tb;fill:#000000;fill-opacity:1;fill-rule:nonzero;stroke:none"
           id="text122"><tspan
             x="0"
             y="0"
             id="tspan120">4</tspan></text></g><path
         d="m 1694.5,288 v 31.5 m 0,2110 V 2398"
         style="fill:none;stroke:#000000;stroke-width:2.5;stroke-linecap:butt;stroke-linejoin:miter;stroke-miterlimit:3.8;stroke-dasharray:none;stroke-opacity:1"
         id="path124" /><g
         id="g126"
         transform="scale(10)"><text
           transform="matrix(1,0,0,-1,168.199,16.8)"
           style="font-variant:normal;font-weight:normal;font-size:9px;font-family:Helvetica;-inkscape-font-specification:Helvetica;writing-mode:lr-tb;fill:#000000;fill-opacity:1;fill-rule:nonzero;stroke:none"
           id="text130"><tspan
             x="0"
             y="0"
             id="tspan128">6</tspan></text></g><path
         d="m 2130,288 v 31.5 m 0,2110 V 2398"
         style="fill:none;stroke:#000000;stroke-width:2.5;stroke-linecap:butt;stroke-linejoin:miter;stroke-miterlimit:3.8;stroke-dasharray:none;stroke-opacity:1"
         id="path132" /><g
         id="g134"
         transform="scale(10)"><text
           transform="matrix(1,0,0,-1,211.749,16.8)"
           style="font-variant:normal;font-weight:normal;font-size:9px;font-family:Helvetica;-inkscape-font-specification:Helvetica;writing-mode:lr-tb;fill:#000000;fill-opacity:1;fill-rule:nonzero;stroke:none"
           id="text138"><tspan
             x="0"
             y="0"
             id="tspan136">8</tspan></text></g><path
         d="m 2566,288 v 31.5 m 0,2110 V 2398"
         style="fill:none;stroke:#000000;stroke-width:2.5;stroke-linecap:butt;stroke-linejoin:miter;stroke-miterlimit:3.8;stroke-dasharray:none;stroke-opacity:1"
         id="path140" /><g
         id="g142"
         transform="scale(10)"><text
           transform="matrix(1,0,0,-1,252.847,16.8)"
           style="font-variant:normal;font-weight:normal;font-size:9px;font-family:Helvetica;-inkscape-font-specification:Helvetica;writing-mode:lr-tb;fill:#000000;fill-opacity:1;fill-rule:nonzero;stroke:none"
           id="text146"><tspan
             x="0 5.0040002"
             y="0"
             sodipodi:role="line"
             id="tspan144">10</tspan></text></g><path
         d="m 3001.5,288 v 31.5 m 0,2110 V 2398"
         style="fill:none;stroke:#000000;stroke-width:2.5;stroke-linecap:butt;stroke-linejoin:miter;stroke-miterlimit:3.8;stroke-dasharray:none;stroke-opacity:1"
         id="path148" /><g
         id="g150"
         transform="scale(10)"><text
           transform="matrix(1,0,0,-1,296.397,16.8)"
           style="font-variant:normal;font-weight:normal;font-size:9px;font-family:Helvetica;-inkscape-font-specification:Helvetica;writing-mode:lr-tb;fill:#000000;fill-opacity:1;fill-rule:nonzero;stroke:none"
           id="text154"><tspan
             x="0 5.0040002"
             y="0"
             sodipodi:role="line"
             id="tspan152">12</tspan></text></g><path
         d="m 3437.5,288 v 31.5 m 0,2110 V 2398"
         style="fill:none;stroke:#000000;stroke-width:2.5;stroke-linecap:butt;stroke-linejoin:miter;stroke-miterlimit:3.8;stroke-dasharray:none;stroke-opacity:1"
         id="path156" /><g
         id="g158"
         transform="scale(10)"><text
           transform="matrix(1,0,0,-1,339.997,16.8)"
           style="font-variant:normal;font-weight:normal;font-size:9px;font-family:Helvetica;-inkscape-font-specification:Helvetica;writing-mode:lr-tb;fill:#000000;fill-opacity:1;fill-rule:nonzero;stroke:none"
           id="text162"><tspan
             x="0 5.0040002"
             y="0"
             sodipodi:role="line"
             id="tspan160">14</tspan></text></g><path
         d="M 387,2429.5 V 288 h 3050.5 v 2141.5 z"
         style="fill:none;stroke:#000000;stroke-width:5;stroke-linecap:butt;stroke-linejoin:miter;stroke-miterlimit:3.8;stroke-dasharray:none;stroke-opacity:1"
         id="path164" /><g
         id="g166"
         transform="scale(10)"><text
           transform="matrix(1,0,0,-1,314.45,214.15)"
           style="font-variant:normal;font-weight:normal;font-size:9px;font-family:Symbol;-inkscape-font-specification:Symbol;writing-mode:lr-tb;fill:#000000;fill-opacity:1;fill-rule:nonzero;stroke:none"
           id="text170"><tspan
             x="0"
             y="0"
             id="tspan168">φ</tspan></text><text
           transform="matrix(1,0,0,-1,321.64106,214.15)"
           style="font-variant:normal;font-weight:normal;font-size:9px;font-family:Helvetica;-inkscape-font-specification:Helvetica;writing-mode:lr-tb;fill:#000000;fill-opacity:1;fill-rule:nonzero;stroke:none"
           id="text174"><tspan
             x="0 5.256 7.7579999 12.762 15.264 20.268 25.271999 27.774 32.778"
             y="0"
             sodipodi:role="line"
             id="tspan172">= 4.74 eV</tspan></text></g><path
         d="m 3133.5,2365.5 -16,60.5 -16,-60.5"
         style="fill:none;stroke:#000000;stroke-width:2.5;stroke-linecap:butt;stroke-linejoin:miter;stroke-miterlimit:3.8;stroke-dasharray:none;stroke-opacity:1"
         id="path176" /><path
         d="m 3101.5,1979 16,-60.5 16,60.5 m -16,-60.5 V 2426"
         style="fill:none;stroke:#000000;stroke-width:2.5;stroke-linecap:butt;stroke-linejoin:miter;stroke-miterlimit:3.8;stroke-dasharray:none;stroke-opacity:1"
         id="path178" /><g
         id="g180"
         transform="scale(10)"><text
           transform="matrix(0,1,1,0,11.55,112.343)"
           style="font-variant:normal;font-weight:normal;font-size:9px;font-family:Helvetica;-inkscape-font-specification:Helvetica;writing-mode:lr-tb;fill:#000000;fill-opacity:1;fill-rule:nonzero;stroke:none"
           id="text184"><tspan
             x="0 5.0040002 10.008 15.012 18.009001 23.013 27.513 30.014999 33.012001 38.015999 44.019001"
             y="0"
             sodipodi:role="line"
             id="tspan182">energy (eV)</tspan></text><text
           transform="matrix(1,0,0,-1,133.3,3.3)"
           style="font-variant:normal;font-weight:normal;font-size:9px;font-family:Helvetica;-inkscape-font-specification:Helvetica;writing-mode:lr-tb;fill:#000000;fill-opacity:1;fill-rule:nonzero;stroke:none"
           id="text188"><tspan
             x="0 5.0040002 7.0019999 11.502 14.004 19.007999 24.011999 28.511999 33.515999 36.018002 41.021999 43.02 48.023998 53.028 58.032001 60.534 63.035999 68.040001 73.043999 75.545998 80.045998 85.302002 90.306 94.806 96.804001 101.304 103.806 106.803 112.806"
             y="0"
             sodipodi:role="line"
             id="tspan186">distance along the z−axis (Å)</tspan></text></g><path
         d="m 432,619.5 h 44.5 l 45,31.5 44.5,43.5 45,-14.5 44.5,-56.5 45,-22 44.5,26.5 45,29.5 44.5,27 45,14.5 44.5,-17 45,-30.5 44.5,-17 45,10.5 44.5,25.5 45,24.5 44.5,11 45,-11 44.5,-25 45,-42 44.5,-56 45,-28.5 44.5,-4 45,-43.5 44.5,-72 45,12 44.5,113 45,109 44.5,94 45,147 44.5,179 45,149 44.5,141.5 45,168 44.5,171 45,141 44.5,108 45,82.5 44.5,64 45,50 44.5,39 45,31.5 44.5,27.5 45,23 44.5,19.5 45,19.5 44.5,17.5 45,15.5 44.5,15 45,13.5 44.5,9 45,8 44.5,7 45,5.5 44.5,4 45,4 44.5,4 45,3 44.5,2.5 45,4 44.5,1.5 45,0.5 44.5,0.5"
         style="fill:none;stroke:#9400d4;stroke-width:2.5;stroke-linecap:butt;stroke-linejoin:miter;stroke-miterlimit:3.8;stroke-dasharray:none;stroke-opacity:1"
         id="path190" /><path
         d="M 387,1918 H 3251"
         style="fill:none;stroke:#000000;stroke-width:1.25;stroke-linecap:butt;stroke-linejoin:miter;stroke-miterlimit:3.8;stroke-dasharray:5, 10;stroke-dashoffset:0;stroke-opacity:1"
         id="path192" /><path
         d="M 387,2429.5 V 288 h 3050.5 v 2141.5 z"
         style="fill:none;stroke:#000000;stroke-width:5;stroke-linecap:butt;stroke-linejoin:miter;stroke-miterlimit:3.8;stroke-dasharray:none;stroke-opacity:1"
         id="path194" /></g></g></svg>
