<svg width="3300" height="1155" xmlns="http://www.w3.org/2000/svg" xmlns:xlink="http://www.w3.org/1999/xlink" xml:space="preserve" overflow="hidden"><g transform="translate(-121 -690)"><g><g><g><path d="M157.212 102.66 171.642 102.66M1592.03 102.66 1577.58 102.66" stroke="#000000" stroke-width="1.14583" stroke-miterlimit="3.8" fill="none" transform="matrix(1 0 0 -1 121 1845)"/><path d="M249.931 1729.83C247.854 1729.83 245.92 1730.84 244.703 1732.34 243.271 1734.42 242.483 1737.5 242.483 1741.79 242.483 1749.67 245.061 1753.75 249.931 1753.75 254.729 1753.75 257.379 1749.67 257.379 1742.01 257.379 1737.5 256.663 1734.49 255.159 1732.34 254.013 1730.76 252.079 1729.83 249.931 1729.83ZM249.931 1732.34C253.01 1732.34 254.514 1735.42 254.514 1741.72 254.514 1748.38 253.01 1751.46 249.859 1751.46 246.923 1751.46 245.419 1748.24 245.419 1741.86 245.419 1735.42 246.923 1732.34 249.931 1732.34Z"/><path d="M157.212 293.799 171.642 293.799M1592.03 293.799 1577.58 293.799" stroke="#000000" stroke-width="1.14583" stroke-miterlimit="3.8" fill="none" transform="matrix(1 0 0 -1 121 1845)"/><path d="M223.176 1538.71C221.099 1538.71 219.165 1539.71 217.948 1541.21 216.516 1543.29 215.728 1546.37 215.728 1550.67 215.728 1558.55 218.306 1562.63 223.176 1562.63 227.974 1562.63 230.624 1558.55 230.624 1550.88 230.624 1546.37 229.907 1543.36 228.404 1541.21 227.258 1539.64 225.324 1538.71 223.176 1538.71ZM223.176 1541.21C226.255 1541.21 227.759 1544.29 227.759 1550.6 227.759 1557.26 226.255 1560.34 223.104 1560.34 220.168 1560.34 218.664 1557.11 218.664 1550.74 218.664 1544.29 220.168 1541.21 223.176 1541.21Z"/><path d="M238.364 1558.55 234.998 1558.55 234.998 1561.91 238.364 1561.91Z"/><path d="M256.379 1539.14 244.634 1539.14 242.987 1551.53 245.565 1551.53C246.854 1549.95 247.928 1549.45 249.79 1549.45 252.798 1549.45 254.731 1551.53 254.731 1554.89 254.731 1558.19 252.798 1560.12 249.718 1560.12 247.283 1560.12 245.78 1558.9 245.063 1556.33L242.27 1556.33C242.628 1558.19 242.987 1559.12 243.631 1559.91 244.92 1561.62 247.212 1562.63 249.79 1562.63 254.373 1562.63 257.596 1559.33 257.596 1554.53 257.596 1550.02 254.588 1546.94 250.22 1546.94 248.644 1546.94 247.355 1547.37 246.066 1548.3L246.925 1541.93 256.379 1541.93Z"/><path d="M157.212 484.92 171.642 484.92M1592.03 484.92 1577.58 484.92" stroke="#000000" stroke-width="1.14583" stroke-miterlimit="3.8" fill="none" transform="matrix(1 0 0 -1 121 1845)"/><path d="M249.43 1354.24 249.43 1370.79 252.223 1370.79 252.223 1347.58 250.361 1347.58C249.43 1351.16 248.785 1351.66 244.417 1352.24L244.417 1354.24Z"/><path d="M157.212 676.274 171.642 676.274M1592.03 676.274 1577.58 676.274" stroke="#000000" stroke-width="1.14583" stroke-miterlimit="3.8" fill="none" transform="matrix(1 0 0 -1 121 1845)"/><path d="M222.674 1162.89 222.674 1179.43 225.467 1179.43 225.467 1156.23 223.605 1156.23C222.674 1159.81 222.03 1160.31 217.661 1160.88L217.661 1162.89Z"/><path d="M238.364 1176.07 234.998 1176.07 234.998 1179.43 238.364 1179.43Z"/><path d="M256.379 1156.66 244.634 1156.66 242.987 1169.05 245.565 1169.05C246.854 1167.47 247.928 1166.97 249.79 1166.97 252.798 1166.97 254.731 1169.05 254.731 1172.41 254.731 1175.71 252.798 1177.64 249.718 1177.64 247.283 1177.64 245.78 1176.42 245.063 1173.85L242.27 1173.85C242.628 1175.71 242.987 1176.64 243.631 1177.43 244.92 1179.14 247.212 1180.15 249.79 1180.15 254.373 1180.15 257.596 1176.85 257.596 1172.05 257.596 1167.54 254.588 1164.46 250.22 1164.46 248.644 1164.46 247.355 1164.89 246.066 1165.82L246.925 1159.45 256.379 1159.45Z"/><path d="M157.212 867.396 171.642 867.396M1592.03 867.396 1577.58 867.396" stroke="#000000" stroke-width="1.14583" stroke-miterlimit="3.8" fill="none" transform="matrix(1 0 0 -1 121 1845)"/><path d="M257.379 985.513 245.419 985.513C245.706 983.58 246.708 982.362 249.501 980.643L252.724 978.853C255.875 977.134 257.522 974.699 257.522 971.906 257.522 969.973 256.734 968.182 255.374 966.893 254.085 965.676 252.366 965.103 250.217 965.103 247.353 965.103 245.204 966.106 243.915 968.111 243.128 969.328 242.769 970.761 242.698 973.124L245.562 973.124C245.634 971.548 245.849 970.617 246.207 969.83 246.995 968.469 248.427 967.61 250.146 967.61 252.724 967.61 254.657 969.471 254.657 971.978 254.657 973.84 253.583 975.416 251.578 976.561L248.57 978.28C243.844 981.001 242.483 983.221 242.197 988.306L257.379 988.306Z"/><path d="M157.212 1058.52 171.642 1058.52M1592.03 1058.52 1577.58 1058.52" stroke="#000000" stroke-width="1.14583" stroke-miterlimit="3.8" fill="none" transform="matrix(1 0 0 -1 121 1845)"/><path d="M230.624 794.388 218.664 794.388C218.95 792.455 219.953 791.237 222.746 789.518L225.969 787.728C229.12 786.009 230.767 783.574 230.767 780.781 230.767 778.848 229.979 777.057 228.618 775.768 227.329 774.551 225.611 773.978 223.462 773.978 220.598 773.978 218.449 774.981 217.16 776.986 216.372 778.203 216.014 779.636 215.943 781.999L218.807 781.999C218.879 780.423 219.094 779.492 219.452 778.705 220.239 777.344 221.672 776.485 223.391 776.485 225.969 776.485 227.902 778.346 227.902 780.853 227.902 782.715 226.828 784.291 224.823 785.436L221.815 787.155C217.088 789.876 215.728 792.096 215.441 797.181L230.624 797.181Z"/><path d="M238.364 793.815 234.998 793.815 234.998 797.181 238.364 797.181Z"/><path d="M256.379 774.408 244.634 774.408 242.987 786.797 245.565 786.797C246.854 785.221 247.928 784.72 249.79 784.72 252.798 784.72 254.731 786.797 254.731 790.163 254.731 793.457 252.798 795.391 249.718 795.391 247.283 795.391 245.78 794.173 245.063 791.595L242.27 791.595C242.628 793.457 242.987 794.388 243.631 795.176 244.92 796.895 247.212 797.897 249.79 797.897 254.373 797.897 257.596 794.603 257.596 789.805 257.596 785.293 254.588 782.214 250.22 782.214 248.644 782.214 247.355 782.643 246.066 783.574L246.925 777.201 256.379 777.201Z"/><path d="M157.212 102.66 157.212 117.108M157.212 1058.52 157.212 1044.09" stroke="#000000" stroke-width="1.14583" stroke-miterlimit="3.8" fill="none" transform="matrix(1 0 0 -1 121 1845)"/><path d="M264.125 1775.09 256.534 1775.09 256.534 1777.39 264.125 1777.39Z"/><path d="M274.021 1768.58 274.021 1785.12 276.814 1785.12 276.814 1761.92 274.952 1761.92C274.021 1765.5 273.377 1766 269.008 1766.57L269.008 1768.58Z"/><path d="M299.809 1782.33 287.849 1782.33C288.136 1780.39 289.138 1779.18 291.931 1777.46L295.154 1775.67C298.305 1773.95 299.952 1771.51 299.952 1768.72 299.952 1766.79 299.164 1765 297.804 1763.71 296.515 1762.49 294.796 1761.92 292.648 1761.92 289.783 1761.92 287.635 1762.92 286.345 1764.92 285.558 1766.14 285.2 1767.57 285.128 1769.94L287.993 1769.94C288.064 1768.36 288.279 1767.43 288.637 1766.64 289.425 1765.28 290.857 1764.42 292.576 1764.42 295.154 1764.42 297.088 1766.29 297.088 1768.79 297.088 1770.65 296.013 1772.23 294.008 1773.37L291 1775.09C286.274 1777.81 284.913 1780.04 284.627 1785.12L299.809 1785.12Z"/><path d="M336.642 102.66 336.642 117.108M336.642 1058.52 336.642 1044.09" stroke="#000000" stroke-width="1.14583" stroke-miterlimit="3.8" fill="none" transform="matrix(1 0 0 -1 121 1845)"/><path d="M443.563 1775.09 435.972 1775.09 435.972 1777.39 443.563 1777.39Z"/><path d="M453.459 1768.58 453.459 1785.12 456.252 1785.12 456.252 1761.92 454.39 1761.92C453.459 1765.5 452.814 1766 448.446 1766.57L448.446 1768.58Z"/><path d="M471.799 1761.92C469.722 1761.92 467.788 1762.92 466.571 1764.42 465.138 1766.5 464.351 1769.58 464.351 1773.88 464.351 1781.75 466.929 1785.84 471.799 1785.84 476.597 1785.84 479.246 1781.75 479.246 1774.09 479.246 1769.58 478.53 1766.57 477.026 1764.42 475.881 1762.85 473.947 1761.92 471.799 1761.92ZM471.799 1764.42C474.878 1764.42 476.382 1767.5 476.382 1773.8 476.382 1780.46 474.878 1783.54 471.727 1783.54 468.791 1783.54 467.287 1780.32 467.287 1773.95 467.287 1767.5 468.791 1764.42 471.799 1764.42Z"/><path d="M515.858 102.66 515.858 117.108M515.858 1058.52 515.858 1044.09" stroke="#000000" stroke-width="1.14583" stroke-miterlimit="3.8" fill="none" transform="matrix(1 0 0 -1 121 1845)"/><path d="M631.69 1775.09 624.099 1775.09 624.099 1777.39 631.69 1777.39Z"/><path d="M645.812 1772.87C648.175 1771.44 648.963 1770.3 648.963 1768.15 648.963 1764.42 646.17 1761.92 642.088 1761.92 638.077 1761.92 635.284 1764.42 635.284 1768.08 635.284 1770.3 636.001 1771.44 638.364 1772.87 635.714 1774.23 634.497 1776.1 634.497 1778.67 634.497 1782.9 637.576 1785.84 642.088 1785.84 646.599 1785.84 649.751 1782.9 649.751 1778.67 649.751 1776.1 648.461 1774.23 645.812 1772.87ZM642.088 1764.42C644.523 1764.42 646.027 1765.86 646.027 1768.15 646.027 1770.37 644.451 1771.8 642.088 1771.8 639.724 1771.8 638.149 1770.37 638.149 1768.15 638.149 1765.86 639.724 1764.42 642.088 1764.42ZM642.088 1774.16C644.952 1774.16 646.886 1776.02 646.886 1778.75 646.886 1781.54 644.952 1783.33 642.016 1783.33 639.295 1783.33 637.361 1781.47 637.361 1778.75 637.361 1776.02 639.223 1774.16 642.088 1774.16Z"/><path d="M695.288 102.66 695.288 117.108M695.288 1058.52 695.288 1044.09" stroke="#000000" stroke-width="1.14583" stroke-miterlimit="3.8" fill="none" transform="matrix(1 0 0 -1 121 1845)"/><path d="M811.128 1775.09 803.537 1775.09 803.537 1777.39 811.128 1777.39Z"/><path d="M828.687 1767.93C828.114 1764.14 825.679 1761.92 822.241 1761.92 819.735 1761.92 817.515 1763.13 816.154 1765.21 814.722 1767.5 814.077 1770.3 814.077 1774.52 814.077 1778.46 814.65 1780.89 816.011 1782.97 817.228 1784.83 819.234 1785.84 821.74 1785.84 826.037 1785.84 829.188 1782.61 829.188 1778.1 829.188 1773.8 826.323 1770.8 822.241 1770.8 819.95 1770.8 818.231 1771.66 817.014 1773.37 817.014 1767.57 818.804 1764.42 822.027 1764.42 824.032 1764.42 825.392 1765.71 825.894 1767.93ZM821.883 1773.3C824.605 1773.3 826.323 1775.24 826.323 1778.32 826.323 1781.25 824.39 1783.33 821.74 1783.33 819.162 1783.33 817.157 1781.11 817.157 1778.17 817.157 1775.31 819.09 1773.3 821.883 1773.3Z"/><path d="M874.736 102.66 874.736 117.108M874.736 1058.52 874.736 1044.09" stroke="#000000" stroke-width="1.14583" stroke-miterlimit="3.8" fill="none" transform="matrix(1 0 0 -1 121 1845)"/><path d="M990.565 1775.09 982.974 1775.09 982.974 1777.39 990.565 1777.39Z"/><path d="M1002.61 1779.53 1002.61 1785.12 1005.47 1785.12 1005.47 1779.53 1008.84 1779.53 1008.84 1776.96 1005.47 1776.96 1005.47 1761.92 1003.4 1761.92 993.085 1776.53 993.085 1779.53ZM1002.61 1776.96 995.52 1776.96 1002.61 1766.71Z"/><path d="M1053.93 102.66 1053.93 117.108M1053.93 1058.52 1053.93 1044.09" stroke="#000000" stroke-width="1.14583" stroke-miterlimit="3.8" fill="none" transform="matrix(1 0 0 -1 121 1845)"/><path d="M1169.77 1775.09 1162.18 1775.09 1162.18 1777.39 1169.77 1777.39Z"/><path d="M1187.62 1782.33 1175.66 1782.33C1175.95 1780.39 1176.95 1779.18 1179.74 1777.46L1182.96 1775.67C1186.12 1773.95 1187.76 1771.51 1187.76 1768.72 1187.76 1766.79 1186.97 1765 1185.61 1763.71 1184.32 1762.49 1182.61 1761.92 1180.46 1761.92 1177.59 1761.92 1175.44 1762.92 1174.16 1764.92 1173.37 1766.14 1173.01 1767.57 1172.94 1769.94L1175.8 1769.94C1175.87 1768.36 1176.09 1767.43 1176.45 1766.64 1177.23 1765.28 1178.67 1764.42 1180.39 1764.42 1182.96 1764.42 1184.9 1766.29 1184.9 1768.79 1184.9 1770.65 1183.82 1772.23 1181.82 1773.37L1178.81 1775.09C1174.08 1777.81 1172.72 1780.04 1172.44 1785.12L1187.62 1785.12Z"/><path d="M1233.38 102.66 1233.38 117.108M1233.38 1058.52 1233.38 1044.09" stroke="#000000" stroke-width="1.14583" stroke-miterlimit="3.8" fill="none" transform="matrix(1 0 0 -1 121 1845)"/><path d="M1358.72 1761.92C1356.65 1761.92 1354.71 1762.92 1353.5 1764.42 1352.06 1766.5 1351.28 1769.58 1351.28 1773.88 1351.28 1781.75 1353.85 1785.84 1358.72 1785.84 1363.52 1785.84 1366.17 1781.75 1366.17 1774.09 1366.17 1769.58 1365.46 1766.57 1363.95 1764.42 1362.81 1762.85 1360.87 1761.92 1358.72 1761.92ZM1358.72 1764.42C1361.8 1764.42 1363.31 1767.5 1363.31 1773.8 1363.31 1780.46 1361.8 1783.54 1358.65 1783.54 1355.72 1783.54 1354.21 1780.32 1354.21 1773.95 1354.21 1767.5 1355.72 1764.42 1358.72 1764.42Z"/><path d="M1412.58 102.66 1412.58 117.108M1412.58 1058.52 1412.58 1044.09" stroke="#000000" stroke-width="1.14583" stroke-miterlimit="3.8" fill="none" transform="matrix(1 0 0 -1 121 1845)"/><path d="M1545.38 1782.33 1533.42 1782.33C1533.71 1780.39 1534.71 1779.18 1537.5 1777.46L1540.73 1775.67C1543.88 1773.95 1545.52 1771.51 1545.52 1768.72 1545.52 1766.79 1544.74 1765 1543.38 1763.71 1542.09 1762.49 1540.37 1761.92 1538.22 1761.92 1535.35 1761.92 1533.21 1762.92 1531.92 1764.92 1531.13 1766.14 1530.77 1767.57 1530.7 1769.94L1533.56 1769.94C1533.64 1768.36 1533.85 1767.43 1534.21 1766.64 1535 1765.28 1536.43 1764.42 1538.15 1764.42 1540.73 1764.42 1542.66 1766.29 1542.66 1768.79 1542.66 1770.65 1541.58 1772.23 1539.58 1773.37L1536.57 1775.09C1531.85 1777.81 1530.48 1780.04 1530.2 1785.12L1545.38 1785.12Z"/><path d="M1592.03 102.66 1592.03 117.108M1592.03 1058.52 1592.03 1044.09" stroke="#000000" stroke-width="1.14583" stroke-miterlimit="3.8" fill="none" transform="matrix(1 0 0 -1 121 1845)"/><path d="M1719.02 1779.53 1719.02 1785.12 1721.88 1785.12 1721.88 1779.53 1725.25 1779.53 1725.25 1776.96 1721.88 1776.96 1721.88 1761.92 1719.8 1761.92 1709.49 1776.53 1709.49 1779.53ZM1719.02 1776.96 1711.93 1776.96 1719.02 1766.71Z"/><path d="M157.212 1058.52 157.212 102.66 1592.03 102.66 1592.03 1058.52Z" stroke="#000000" stroke-width="2.29167" stroke-miterlimit="3.8" fill="none" transform="matrix(1 0 0 -1 121 1845)"/><path d="M1233.6 102.892 1233.6 1058.75" stroke="#000000" stroke-width="0.572917" stroke-miterlimit="3.8" stroke-dasharray="2.29167 4.58333" fill="none" transform="matrix(1 0 0 -1 121 1845)"/><path d="M162.182 1378.43 162.182 1369.41C162.182 1363.54 157.742 1359.89 150.437 1359.89 143.204 1359.89 138.764 1363.47 138.764 1369.41L138.764 1378.43ZM159.532 1375.43 141.414 1375.43 141.414 1369.91C141.414 1365.33 144.565 1362.89 150.509 1362.89 156.453 1362.89 159.532 1365.33 159.532 1369.91Z"/><path d="M138.406 1345.67C138.406 1352.33 143.347 1356.92 150.652 1356.92 158.028 1356.92 162.898 1352.41 162.898 1345.6 162.898 1342.74 162.039 1340.23 160.463 1338.37 158.315 1335.86 154.662 1334.36 150.867 1334.36 143.347 1334.36 138.406 1338.8 138.406 1345.67ZM141.056 1345.67C141.056 1340.59 144.851 1337.3 150.795 1337.3 156.453 1337.3 160.32 1340.66 160.32 1345.6 160.32 1350.62 156.453 1353.91 150.652 1353.91 144.923 1353.91 141.056 1350.62 141.056 1345.67Z"/><path d="M145.639 1314.05C144.063 1314.05 143.634 1314.12 142.488 1314.7 139.838 1315.92 138.406 1318.71 138.406 1322.65 138.406 1327.73 141.056 1330.95 145.281 1330.95 148.146 1330.95 149.936 1329.45 150.724 1326.37L152.299 1320.5C153.015 1317.56 154.233 1316.2 156.023 1316.2 157.312 1316.2 158.601 1316.92 159.317 1317.92 159.962 1318.85 160.32 1320.28 160.32 1322.22 160.32 1324.8 159.675 1326.44 158.315 1327.59 157.312 1328.45 156.166 1328.88 154.734 1328.81L154.734 1331.6C156.882 1331.6 158.315 1331.17 159.604 1330.24 161.824 1328.66 162.898 1325.94 162.898 1322.36 162.898 1319.57 162.254 1317.35 161.108 1315.84 159.89 1314.27 157.813 1313.27 155.737 1313.27 152.872 1313.27 150.795 1315.06 149.864 1318.21L148.289 1324.08C147.573 1326.94 146.642 1327.95 144.851 1327.95 142.488 1327.95 140.912 1325.87 140.912 1322.72 140.912 1318.99 142.56 1316.92 145.639 1316.85Z"/><path d="M138.764 1295.26C142.989 1298.49 148.862 1300.49 153.875 1300.49 158.959 1300.49 164.76 1298.49 168.985 1295.26L168.985 1293.55C164.402 1296.34 159.031 1297.91 153.875 1297.91 148.79 1297.91 143.347 1296.34 138.764 1293.55Z"/><path d="M150.079 1278.14C146.785 1278.14 144.923 1280.36 144.923 1284.22 144.923 1288.16 146.928 1290.67 150.007 1290.67 152.657 1290.67 153.875 1289.31 154.877 1285.37L155.45 1282.86C155.952 1281 156.596 1280.21 157.813 1280.21 159.389 1280.21 160.463 1281.79 160.463 1284.15 160.463 1285.58 160.034 1286.8 159.317 1287.52 158.816 1287.88 158.386 1288.09 157.169 1288.23L157.169 1291.1C161.036 1290.95 162.898 1288.81 162.898 1284.37 162.898 1280.14 160.821 1277.42 157.599 1277.42 155.092 1277.42 153.731 1278.85 152.944 1282.22L152.299 1284.8C151.798 1286.94 151.082 1287.88 149.864 1287.88 148.289 1287.88 147.358 1286.51 147.358 1284.29 147.358 1282.15 148.289 1281 150.079 1280.93Z"/><path d="M145.353 1267.97 145.353 1270.76 140.769 1270.76 140.769 1273.41 145.353 1273.41 145.353 1275.7 147.573 1275.7 147.573 1273.41 160.248 1273.41C161.967 1273.41 162.898 1272.26 162.898 1270.19 162.898 1269.47 162.827 1268.9 162.683 1267.97L160.463 1267.97C160.535 1268.4 160.606 1268.75 160.606 1269.26 160.606 1270.4 160.248 1270.76 159.103 1270.76L147.573 1270.76 147.573 1267.97Z"/><path d="M160.606 1250.02C160.678 1250.31 160.678 1250.45 160.678 1250.6 160.678 1251.53 160.177 1252.1 159.389 1252.1L149.506 1252.1C146.498 1252.1 144.923 1254.25 144.923 1258.4 144.923 1260.84 145.567 1262.84 146.856 1263.99 147.716 1264.78 148.647 1265.06 150.366 1265.13L150.366 1262.41C148.289 1262.2 147.358 1260.98 147.358 1258.47 147.358 1256.04 148.289 1254.75 149.864 1254.75L150.58 1254.75C151.726 1254.75 152.156 1255.32 152.442 1257.54 152.944 1261.34 153.015 1261.91 153.445 1262.91 154.304 1264.85 155.737 1265.85 157.957 1265.85 160.965 1265.85 162.898 1263.77 162.898 1260.34 162.898 1258.26 162.182 1256.54 160.463 1254.61 162.182 1254.46 162.898 1253.6 162.898 1251.89 162.898 1251.31 162.827 1250.95 162.612 1250.02ZM156.882 1254.75C157.813 1254.75 158.315 1254.97 159.103 1255.82 160.034 1256.9 160.606 1258.19 160.606 1259.76 160.606 1261.84 159.604 1263.06 157.885 1263.06 156.095 1263.06 155.235 1261.91 154.806 1259.05 154.448 1256.18 154.304 1255.61 153.875 1254.75Z"/><path d="M145.353 1241.21 145.353 1244 140.769 1244 140.769 1246.65 145.353 1246.65 145.353 1248.94 147.573 1248.94 147.573 1246.65 160.248 1246.65C161.967 1246.65 162.898 1245.51 162.898 1243.43 162.898 1242.71 162.827 1242.14 162.683 1241.21L160.463 1241.21C160.535 1241.64 160.606 1242 160.606 1242.5 160.606 1243.64 160.248 1244 159.103 1244L147.573 1244 147.573 1241.21Z"/><path d="M154.662 1223.98C152.084 1223.98 150.58 1224.2 149.291 1224.7 146.57 1225.77 144.923 1228.35 144.923 1231.5 144.923 1236.16 148.432 1239.16 154.018 1239.16 159.532 1239.16 162.898 1236.3 162.898 1231.5 162.898 1227.71 160.75 1225.06 157.097 1224.34L157.097 1227.06C159.317 1227.78 160.463 1229.28 160.463 1231.43 160.463 1233.15 159.675 1234.58 158.243 1235.51 157.312 1236.16 156.31 1236.37 154.662 1236.37ZM152.514 1236.3C149.363 1236.09 147.358 1234.22 147.358 1231.5 147.358 1228.78 149.506 1226.85 152.514 1226.85Z"/><path d="M150.079 1208.58C146.785 1208.58 144.923 1210.8 144.923 1214.67 144.923 1218.6 146.928 1221.11 150.007 1221.11 152.657 1221.11 153.875 1219.75 154.877 1215.81L155.45 1213.31C155.952 1211.44 156.596 1210.66 157.813 1210.66 159.389 1210.66 160.463 1212.23 160.463 1214.59 160.463 1216.03 160.034 1217.24 159.317 1217.96 158.816 1218.32 158.386 1218.53 157.169 1218.68L157.169 1221.54C161.036 1221.4 162.898 1219.25 162.898 1214.81 162.898 1210.58 160.821 1207.86 157.599 1207.86 155.092 1207.86 153.731 1209.3 152.944 1212.66L152.299 1215.24C151.798 1217.39 151.082 1218.32 149.864 1218.32 148.289 1218.32 147.358 1216.96 147.358 1214.74 147.358 1212.59 148.289 1211.44 150.079 1211.37Z"/><path d="M138.764 1199.2 162.827 1206.86 162.827 1205.07 138.764 1197.48Z"/><path d="M154.662 1181.18C152.084 1181.18 150.58 1181.4 149.291 1181.9 146.57 1182.97 144.923 1185.55 144.923 1188.7 144.923 1193.36 148.432 1196.37 154.018 1196.37 159.532 1196.37 162.898 1193.5 162.898 1188.7 162.898 1184.91 160.75 1182.26 157.097 1181.54L157.097 1184.26C159.317 1184.98 160.463 1186.48 160.463 1188.63 160.463 1190.35 159.675 1191.78 158.243 1192.71 157.312 1193.36 156.31 1193.57 154.662 1193.57ZM152.514 1193.5C149.363 1193.29 147.358 1191.42 147.358 1188.7 147.358 1185.98 149.506 1184.05 152.514 1184.05Z"/><path d="M162.182 1167.21 138.764 1159.12 138.764 1162.27 158.601 1168.79 138.764 1175.66 138.764 1178.89 162.182 1170.43Z"/><path d="M168.985 1155.41C164.76 1152.26 158.959 1150.18 153.875 1150.18 148.862 1150.18 142.989 1152.26 138.764 1155.41L138.764 1157.2C143.347 1154.41 148.79 1152.83 153.875 1152.83 159.031 1152.83 164.402 1154.41 168.985 1157.2Z"/><path d="M915.797 1822.57 928.544 1822.57 928.544 1820 915.797 1820 915.797 1812.48 929.046 1812.48 929.046 1809.83 912.789 1809.83 912.789 1833.24 929.619 1833.24 929.619 1830.59 915.797 1830.59Z"/><path d="M933.544 1816.41 933.544 1833.24 936.266 1833.24 936.266 1824.01C936.266 1820.57 938.056 1818.28 940.849 1818.28 942.926 1818.28 944.286 1819.57 944.286 1821.57L944.286 1833.24 946.936 1833.24 946.936 1820.57C946.936 1817.78 944.859 1815.99 941.637 1815.99 939.13 1815.99 937.483 1816.92 936.051 1819.28L936.051 1816.41Z"/><path d="M965.634 1825.72C965.634 1823.15 965.419 1821.64 964.918 1820.35 963.843 1817.63 961.265 1815.99 958.114 1815.99 953.459 1815.99 950.452 1819.49 950.452 1825.08 950.452 1830.59 953.316 1833.96 958.114 1833.96 961.91 1833.96 964.56 1831.81 965.276 1828.16L962.554 1828.16C961.838 1830.38 960.334 1831.53 958.186 1831.53 956.467 1831.53 955.035 1830.74 954.104 1829.31 953.459 1828.37 953.245 1827.37 953.245 1825.72ZM953.316 1823.58C953.531 1820.43 955.393 1818.42 958.114 1818.42 960.836 1818.42 962.769 1820.57 962.769 1823.58Z"/><path d="M969.221 1816.41 969.221 1833.24 971.942 1833.24 971.942 1824.51C971.942 1820.5 973.589 1818.71 977.313 1818.78L977.313 1816.06C976.884 1815.99 976.597 1815.99 976.239 1815.99 974.52 1815.99 973.231 1816.99 971.656 1819.49L971.656 1816.41Z"/><path d="M990.647 1816.41 990.647 1818.85C989.286 1816.84 987.854 1815.99 985.705 1815.99 981.623 1815.99 978.83 1819.71 978.83 1825.15 978.83 1827.94 979.475 1830.02 980.907 1831.67 982.196 1833.17 983.772 1833.96 985.491 1833.96 987.567 1833.96 989 1833.1 990.36 1830.95L990.36 1831.81C990.36 1836.32 989.143 1837.97 985.777 1837.97 983.557 1837.97 982.34 1837.11 982.053 1835.18L979.332 1835.18C979.618 1838.26 982.053 1840.26 985.705 1840.26 988.212 1840.26 990.289 1839.4 991.363 1838.11 992.652 1836.54 993.082 1834.46 993.082 1830.45L993.082 1816.41ZM985.992 1818.42C988.785 1818.42 990.36 1820.78 990.36 1825.08 990.36 1829.16 988.785 1831.53 985.992 1831.53 983.199 1831.53 981.623 1829.09 981.623 1824.94 981.623 1820.86 983.199 1818.42 985.992 1818.42Z"/><path d="M1007.98 1816.41 1003.33 1829.52 999.032 1816.41 996.167 1816.41 1001.82 1833.32 1000.82 1835.97C1000.39 1837.18 999.82 1837.61 998.674 1837.61 998.244 1837.61 997.815 1837.54 997.242 1837.4L997.242 1839.83C997.815 1840.12 998.316 1840.26 999.032 1840.26 999.891 1840.26 1000.82 1839.98 1001.54 1839.4 1002.4 1838.83 1002.9 1838.11 1003.4 1836.75L1010.85 1816.41Z"/><path d="M1028.07 1809.83C1024.85 1814.05 1022.85 1819.92 1022.85 1824.94 1022.85 1830.02 1024.85 1835.82 1028.07 1840.05L1029.79 1840.05C1027 1835.46 1025.43 1830.09 1025.43 1824.94 1025.43 1819.85 1027 1814.41 1029.79 1809.83Z"/><path d="M1047.64 1825.72C1047.64 1823.15 1047.42 1821.64 1046.92 1820.35 1045.85 1817.63 1043.27 1815.99 1040.12 1815.99 1035.46 1815.99 1032.46 1819.49 1032.46 1825.08 1032.46 1830.59 1035.32 1833.96 1040.12 1833.96 1043.91 1833.96 1046.56 1831.81 1047.28 1828.16L1044.56 1828.16C1043.84 1830.38 1042.34 1831.53 1040.19 1831.53 1038.47 1831.53 1037.04 1830.74 1036.11 1829.31 1035.46 1828.37 1035.25 1827.37 1035.25 1825.72ZM1035.32 1823.58C1035.54 1820.43 1037.4 1818.42 1040.12 1818.42 1042.84 1818.42 1044.77 1820.57 1044.77 1823.58Z"/><path d="M1061.61 1833.24 1069.7 1809.83 1066.55 1809.83 1060.03 1829.66 1053.16 1809.83 1049.94 1809.83 1058.39 1833.24Z"/><path d="M1073.41 1840.05C1076.56 1835.82 1078.64 1830.02 1078.64 1824.94 1078.64 1819.92 1076.56 1814.05 1073.41 1809.83L1071.62 1809.83C1074.42 1814.41 1075.99 1819.85 1075.99 1824.94 1075.99 1830.09 1074.42 1835.46 1071.62 1840.05Z"/><path d="M172.555 102.66 182.188 102.66 184.712 104.271 187.236 106.795 189.528 109.32 192.035 112.059 194.559 114.816 196.851 115.496 201.899 115.496 204.191 116.195 206.715 121.924 209.222 130.16 211.514 138.879 214.038 146.434 216.33 150.57 218.854 151.483 221.379 151.017 223.67 150.337 226.195 145.288 228.701 141.17 230.993 137.5 233.517 133.597 236.042 129.479 238.333 127.868 240.858 127.42 243.382 127.188 245.674 126.722 248.18 126.722 250.705 127.653 252.996 129.014 255.521 130.392 257.812 132.236 260.337 143.695 262.861 160.882 265.153 159.038 267.66 156.746 270.184 154.222 272.476 143.695 275 132.236 277.524 132.004 279.816 131.771 282.341 131.771 284.847 131.538 287.139 131.538 289.663 131.771 292.188 132.684 294.479 133.382 297.004 133.83 299.528 136.587 301.82 139.326 304.326 141.618 306.618 142.764 309.142 142.764 311.667 143.229 313.958 143.695 316.483 144.142 319.007 144.84 321.299 145.288 323.805 144.84 326.33 144.608 328.621 144.142 331.146 143.91 333.67 143.91 335.962 144.142 338.486 144.375 340.993 144.84 343.285 144.608 345.809 142.764 348.101 140.938 350.625 139.111 353.149 137.733 355.441 136.82 357.966 138.18 360.472 139.559 362.764 140.938 365.288 142.316 367.812 143.91 370.104 145.986 372.629 148.045 375.153 150.785 377.445 159.736 379.951 166.826 382.476 170.962 384.767 192.965 387.292 196.17 389.583 190.889 392.108 187.684 394.632 174.167 396.924 162.708 399.43 157.66 401.955 155.601 406.771 155.601 409.295 155.153 411.587 153.309 414.111 149.871 416.618 148.278 418.91 148.278 421.434 148.958 423.958 150.785 426.25 151.715 428.774 152.861 431.066 159.271 433.591 173.254 436.097 191.354 438.389 212.212 440.913 232.604 443.438 250.024 445.729 264.455 448.254 329.087 450.778 375.153 453.07 397.837 455.576 387.059 458.101 345.129 460.392 274.087 462.917 252.996 465.441 240.392 467.733 236.722 470.257 237.653 472.764 239.712 475.055 244.743 477.58 251.403 479.871 261.483 482.396 309.142 484.92 337.788 487.212 352.004 489.736 362.083 492.243 357.267 494.535 349.712 497.059 270.184 499.583 257.58 501.875 270.417 504.399 278.438 506.924 289.896 509.216 315.337 511.722 240.392 514.246 223.438 516.538 207.861 519.062 195.472 521.587 185.625 523.879 177.139 526.403 175.08 528.695 176.691 531.201 177.371 533.726 167.972 536.017 145.521 538.542 141.17 541.066 139.111 543.358 137.035 545.882 134.976 548.389 132.684 550.68 130.16 553.205 127.42 555.729 127.42 558.021 129.945 560.545 132.236 562.837 134.528 565.361 136.82 567.868 139.111 570.16 136.354 572.684 135.889 575.208 137.267 577.5 138.879 580.024 140.705 582.549 150.785 584.841 164.767 587.347 170.962 589.871 169.816 592.163 168.903 594.688 162.708 597.212 146.201 599.504 141.17 602.028 140.705 604.535 140.024 606.826 139.326 609.351 142.764 611.642 149.639 614.167 155.153 616.691 159.736 618.983 162.941 621.507 166.611 624.014 171.41 626.305 176.691 628.83 181.955 631.354 183.101 633.646 180.576 636.17 178.517 638.695 175.545 640.986 198.229 643.493 190.674 646.017 195.257 648.309 214.271 650.833 249.326 653.358 263.542 655.649 272.941 658.174 228.254 660.466 177.371 662.972 173.254 665.496 173.486 667.788 172.788 670.312 172.108 672.837 171.195 675.129 173.701 677.653 175.312 680.16 172.34 682.451 169.583 684.976 194.326 687.5 251.403 689.792 245.889 692.316 231.458 694.841 219.32 697.132 223.438 699.639 227.788 701.93 247.035 704.455 272.941 706.979 335.496 709.271 225.496 711.795 215.417 714.32 211.746 716.611 213.125 719.118 225.962 721.642 234.663 723.934 237.868 726.458 243.149 728.983 242.917 731.274 239.246 733.799 236.507 736.305 229.167 738.597 227.788 741.121 227.788 743.413 231.691 745.938 271.33 748.462 276.611 750.754 227.555 753.278 180.361 755.785 178.983 758.076 177.604 760.601 176.226 763.125 175.08 765.417 175.545 767.941 175.993 770.466 176.691 772.757 177.139 775.264 177.837 777.788 178.517 780.08 179.215" stroke="#9300D3" stroke-width="1.14583" stroke-miterlimit="3.8" fill="none" transform="matrix(1 0 0 -1 121 1845)"/><path d="M780.08 179.215 782.604 180.129 785.129 180.809 787.42 181.507 789.945 182.188 792.236 205.337 794.743 264.007 797.267 252.549 799.559 202.58 802.083 200.986 804.608 201.201 806.899 201.201 809.424 201.667 811.93 201.201 814.222 200.754 816.746 201.201 819.271 196.17 821.562 176.458 824.087 175.312 826.611 189.062 828.903 228.021 831.41 207.163 833.701 203.493 836.226 198.695 838.75 192.733 841.042 185.858 843.566 168.67 846.091 156.066 848.382 156.746 850.889 160.649 853.413 163.174 855.705 163.174 860.754 162.243 863.045 161.795 865.57 161.562 868.076 164.32 870.368 170.264 872.892 177.139 875.184 185.625 877.708 216.795 880.233 253.695 882.524 254.375 885.049 258.493 887.555 197.316 889.847 181.274 892.371 173.486 894.896 176.924 897.188 175.08 899.712 172.34 902.236 170.496 904.528 173.254 907.035 187.236 909.559 213.125 911.851 219.32 914.375 226.642 916.667 235.361 919.191 244.062 921.716 255.055 924.007 275.913 926.514 245.889 929.038 233.07 931.33 216.562 933.854 217.476 936.379 217.708 938.67 243.149 941.195 262.163 943.701 275.466 945.993 281.41 948.517 270.649 951.042 260.104 953.333 240.392 955.858 222.059 958.382 221.379 960.674 247.035 963.18 254.375 965.472 207.396 967.996 227.555 970.521 247.035 972.812 267.66 975.337 314.191 977.861 251.618 980.153 239.246 982.66 228.486 985.184 229.167 987.476 233.517 990 237.653 992.524 241.538 994.816 245.674 997.341 254.84 999.847 267.212 1002.14 373.542 1004.66 404.246 1006.95 391.642 1009.48 409.976 1012 341.691 1014.3 266.514 1016.82 260.337 1019.33 286.226 1021.62 247.035 1024.14 222.292 1026.67 237.868 1028.96 302.5 1031.48 310.288 1034.01 333.438 1036.3 344.43 1038.81 314.639 1041.33 353.149 1043.62 358.879 1046.15 356.587 1048.44 355.208 1050.96 349.014 1053.49 342.837 1055.78 320.601 1058.28 304.792 1060.81 282.555 1063.1 278.67 1065.62 280.049 1068.15 287.604 1070.44 295.858 1072.97 312.132 1075.47 338.701 1077.76 361.403 1080.29 376.746 1082.81 404.712 1085.1 413.879 1087.63 413.646 1090.15 386.379 1092.44 372.629 1094.95 361.403 1097.24 361.17 1099.77 360.938 1102.29 360.024 1104.58 357.5 1107.11 351.771 1109.63 341.924 1111.92 337.108 1114.43 334.583 1116.95 335.264 1119.25 341.226 1121.77 346.955 1124.3 357.035 1126.59 371.483 1129.11 371.93 1131.62 361.851 1133.91 347.188 1136.43 334.583 1138.73 333.903 1141.25 335.962 1143.77 336.41 1146.07 341.458 1148.59 339.847 1151.1 782.139 1153.39 912.549 1155.91 784.663 1158.44 692.764 1160.73 608.903 1163.25 547.941 1165.78 535.57 1168.07 482.861 1170.58 458.799 1173.1 450.993 1175.39 447.555 1177.92 446.642 1180.21 451.458 1182.73 454.43 1185.26 451.924 1187.55 453.285 1190.06 468.413 1192.58 488.805 1194.87 496.826 1197.4 488.358 1199.92 501.195 1202.21 521.121 1204.74 445.729 1207.24 408.382 1209.53 386.146 1212.06 364.841 1214.58 547.243 1216.88 992.972 1219.4 344.663 1221.92 280.496 1224.22 355.208 1226.72 455.576 1229.01 606.146 1231.54 186.538 1234.06 104.271 1236.35 102.66 1260.88 102.66 1263.39 105.184 1265.68 126.274 1268.2 151.483 1270.5 162.941 1273.02 169.351 1275.55 173.021 1277.84 174.847 1280.36 176.924 1282.87 179.663 1285.16 182.868 1287.68 182.868 1290.21 188.597 1292.5 194.326 1295.02 191.354 1297.55 193.18 1299.84 202.132 1302.35 210.601 1304.87 211.514 1307.16 203.278 1309.69 200.754 1311.98 199.142 1314.5 199.608 1317.03 200.521 1319.32 201.899 1321.83 203.493 1324.35 205.57 1326.64 212.892 1329.17 218.854 1331.69 218.621 1333.98 217.243 1336.51 212.212 1339.01 203.493 1341.31 201.201 1343.83 210.601 1346.35 212.445 1348.65 239.014 1351.17 161.562 1353.69 160.417 1355.99 157.445 1358.49 160.882 1360.78 164.767 1363.31 168.438 1365.83 166.826 1368.12 163.854 1370.65 160.882 1373.17 160.184 1375.47 160.417 1377.97 159.736 1380.5 161.562 1382.79 178.75 1387.84 228.701 1390.13 245.674 1392.65 271.33 1395.16 445.049 1397.45 258.278 1399.98 260.337 1402.27 260.337 1404.79 265.601 1407.32 285.545 1409.61 290.361 1412.13 287.604 1414.64 284.847 1416.93 279.816 1419.45 295.16 1421.98 291.722 1424.27 303.879 1426.8 323.805 1429.32 357.966 1431.61 364.142 1434.12 354.062 1436.64 346.955 1438.93 344.663 1441.46 292.188 1443.98 260.785 1446.27 251.403 1448.8 248.413 1451.09 245.441 1453.6 232.371 1456.12 211.066 1458.41 206.25 1460.94 206.483 1463.46 209.007 1465.75 267.892 1468.28 214.504 1470.78 209.222 1473.08 201.434 1475.6 192.733 1478.12 186.771 1480.42 184.246 1482.94 183.799 1485.23 182.42 1487.76 181.722 1490.26 182.868 1492.56 178.285 1495.08 167.757 1497.6 153.542 1499.9 140.472 1502.42 137.5 1504.94 135.208 1507.24 132.004 1509.74 129.246 1512.27 128.566 1514.56 137.5 1517.08 154.455 1519.61 150.57 1521.9 144.375 1524.42 137.267 1526.93 126.274 1529.22 111.826 1531.75 102.66 1541.38 102.66" stroke="#9300D3" stroke-width="1.14583" stroke-miterlimit="3.8" fill="none" transform="matrix(1 0 0 -1 121 1845)"/><path d="M157.212 1058.52 157.212 102.66 1592.03 102.66 1592.03 1058.52Z" stroke="#000000" stroke-width="2.29167" stroke-miterlimit="3.8" fill="none" transform="matrix(1 0 0 -1 121 1845)"/><path d="M959.867 742.038 962.302 749.056 965.668 749.056 957.432 725.638 953.565 725.638 945.258 749.056 948.409 749.056 950.843 742.038ZM959.079 739.531 951.631 739.531 955.498 728.861Z"/><path d="M974.248 732.227 971.455 732.227 971.455 727.643 968.806 727.643 968.806 732.227 966.514 732.227 966.514 734.447 968.806 734.447 968.806 747.123C968.806 748.841 969.951 749.772 972.028 749.772 972.744 749.772 973.317 749.701 974.248 749.557L974.248 747.337C973.819 747.409 973.46 747.481 972.959 747.481 971.813 747.481 971.455 747.123 971.455 745.977L971.455 734.447 974.248 734.447Z"/><path d="M983.74 731.797C979.014 731.797 976.149 735.163 976.149 740.749 976.149 746.478 979.014 749.772 983.74 749.772 988.539 749.772 991.331 746.406 991.331 740.892 991.331 735.091 988.61 731.797 983.74 731.797ZM983.74 734.232C986.748 734.232 988.61 736.738 988.61 740.892 988.61 744.831 986.748 747.337 983.74 747.337 980.804 747.337 978.942 744.831 978.942 740.749 978.942 736.738 980.804 734.232 983.74 734.232Z"/><path d="M995.062 732.227 995.062 749.056 997.783 749.056 997.783 738.529C997.783 736.094 999.573 734.089 1001.72 734.089 1003.73 734.089 1004.87 735.306 1004.87 737.455L1004.87 749.056 1007.52 749.056 1007.52 738.529C1007.52 736.094 1009.31 734.089 1011.46 734.089 1013.47 734.089 1014.61 735.378 1014.61 737.455L1014.61 749.056 1017.26 749.056 1017.26 736.452C1017.26 733.444 1015.54 731.797 1012.39 731.797 1010.17 731.797 1008.81 732.442 1007.24 734.304 1006.23 732.513 1004.87 731.797 1002.72 731.797 1000.5 731.797 999.001 732.585 997.568 734.59L997.568 732.227Z"/><path d="M1036.79 732.513 1036.79 749.056 1039.59 749.056 1039.59 725.853 1037.72 725.853C1036.79 729.434 1036.15 729.935 1031.78 730.508L1031.78 732.513Z"/></g></g></g><g><g><g><path d="M157.212 102.66 171.642 102.66M1592.03 102.66 1577.58 102.66" stroke="#000000" stroke-width="1.14583" stroke-miterlimit="3.8" fill="none" transform="matrix(1 0 0 -1 1771 1845)"/><path d="M1899.93 1729.83C1897.85 1729.83 1895.92 1730.84 1894.7 1732.34 1893.27 1734.42 1892.48 1737.5 1892.48 1741.79 1892.48 1749.67 1895.06 1753.75 1899.93 1753.75 1904.73 1753.75 1907.38 1749.67 1907.38 1742.01 1907.38 1737.5 1906.66 1734.49 1905.16 1732.34 1904.01 1730.76 1902.08 1729.83 1899.93 1729.83ZM1899.93 1732.34C1903.01 1732.34 1904.51 1735.42 1904.51 1741.72 1904.51 1748.38 1903.01 1751.46 1899.86 1751.46 1896.92 1751.46 1895.42 1748.24 1895.42 1741.86 1895.42 1735.42 1896.92 1732.34 1899.93 1732.34Z"/><path d="M157.212 239.246 171.642 239.246M1592.03 239.246 1577.58 239.246" stroke="#000000" stroke-width="1.14583" stroke-miterlimit="3.8" fill="none" transform="matrix(1 0 0 -1 1771 1845)"/><path d="M1873.18 1593.25C1871.1 1593.25 1869.17 1594.25 1867.95 1595.76 1866.52 1597.83 1865.73 1600.91 1865.73 1605.21 1865.73 1613.09 1868.31 1617.17 1873.18 1617.17 1877.97 1617.17 1880.62 1613.09 1880.62 1605.42 1880.62 1600.91 1879.91 1597.9 1878.4 1595.76 1877.26 1594.18 1875.32 1593.25 1873.18 1593.25ZM1873.18 1595.76C1876.26 1595.76 1877.76 1598.84 1877.76 1605.14 1877.76 1611.8 1876.26 1614.88 1873.1 1614.88 1870.17 1614.88 1868.66 1611.65 1868.66 1605.28 1868.66 1598.84 1870.17 1595.76 1873.18 1595.76Z"/><path d="M1888.36 1613.09 1885 1613.09 1885 1616.45 1888.36 1616.45Z"/><path d="M1907.38 1613.66 1895.42 1613.66C1895.71 1611.73 1896.71 1610.51 1899.5 1608.79L1902.73 1607C1905.88 1605.28 1907.52 1602.85 1907.52 1600.05 1907.52 1598.12 1906.74 1596.33 1905.38 1595.04 1904.09 1593.82 1902.37 1593.25 1900.22 1593.25 1897.36 1593.25 1895.21 1594.25 1893.92 1596.26 1893.13 1597.47 1892.77 1598.91 1892.7 1601.27L1895.56 1601.27C1895.64 1599.7 1895.85 1598.76 1896.21 1597.98 1897 1596.62 1898.43 1595.76 1900.15 1595.76 1902.73 1595.76 1904.66 1597.62 1904.66 1600.12 1904.66 1601.99 1903.59 1603.56 1901.58 1604.71L1898.57 1606.43C1893.85 1609.15 1892.49 1611.37 1892.2 1616.45L1907.38 1616.45Z"/><path d="M157.212 375.833 171.642 375.833M1592.03 375.833 1577.58 375.833" stroke="#000000" stroke-width="1.14583" stroke-miterlimit="3.8" fill="none" transform="matrix(1 0 0 -1 1771 1845)"/><path d="M1873.18 1456.67C1871.1 1456.67 1869.17 1457.67 1867.95 1459.17 1866.52 1461.25 1865.73 1464.33 1865.73 1468.63 1865.73 1476.5 1868.31 1480.59 1873.18 1480.59 1877.97 1480.59 1880.62 1476.5 1880.62 1468.84 1880.62 1464.33 1879.91 1461.32 1878.4 1459.17 1877.26 1457.6 1875.32 1456.67 1873.18 1456.67ZM1873.18 1459.17C1876.26 1459.17 1877.76 1462.25 1877.76 1468.55 1877.76 1475.21 1876.26 1478.29 1873.1 1478.29 1870.17 1478.29 1868.66 1475.07 1868.66 1468.7 1868.66 1462.25 1870.17 1459.17 1873.18 1459.17Z"/><path d="M1888.36 1476.5 1885 1476.5 1885 1479.87 1888.36 1479.87Z"/><path d="M1901.58 1474.28 1901.58 1479.87 1904.44 1479.87 1904.44 1474.28 1907.81 1474.28 1907.81 1471.71 1904.44 1471.71 1904.44 1456.67 1902.37 1456.67 1892.06 1471.28 1892.06 1474.28ZM1901.58 1471.71 1894.49 1471.71 1901.58 1461.46Z"/><path d="M157.212 512.42 171.642 512.42M1592.03 512.42 1577.58 512.42" stroke="#000000" stroke-width="1.14583" stroke-miterlimit="3.8" fill="none" transform="matrix(1 0 0 -1 1771 1845)"/><path d="M1873.18 1320.08C1871.1 1320.08 1869.17 1321.08 1867.95 1322.59 1866.52 1324.67 1865.73 1327.74 1865.73 1332.04 1865.73 1339.92 1868.31 1344 1873.18 1344 1877.97 1344 1880.62 1339.92 1880.62 1332.26 1880.62 1327.74 1879.91 1324.74 1878.4 1322.59 1877.26 1321.01 1875.32 1320.08 1873.18 1320.08ZM1873.18 1322.59C1876.26 1322.59 1877.76 1325.67 1877.76 1331.97 1877.76 1338.63 1876.26 1341.71 1873.1 1341.71 1870.17 1341.71 1868.66 1338.49 1868.66 1332.11 1868.66 1325.67 1870.17 1322.59 1873.18 1322.59Z"/><path d="M1888.36 1339.92 1885 1339.92 1885 1343.29 1888.36 1343.29Z"/><path d="M1907.09 1326.1C1906.52 1322.3 1904.09 1320.08 1900.65 1320.08 1898.14 1320.08 1895.92 1321.3 1894.56 1323.38 1893.13 1325.67 1892.49 1328.46 1892.49 1332.69 1892.49 1336.63 1893.06 1339.06 1894.42 1341.14 1895.64 1343 1897.64 1344 1900.15 1344 1904.44 1344 1907.6 1340.78 1907.6 1336.27 1907.6 1331.97 1904.73 1328.96 1900.65 1328.96 1898.36 1328.96 1896.64 1329.82 1895.42 1331.54 1895.42 1325.74 1897.21 1322.59 1900.43 1322.59 1902.44 1322.59 1903.8 1323.88 1904.3 1326.1ZM1900.29 1331.47C1903.01 1331.47 1904.73 1333.4 1904.73 1336.48 1904.73 1339.42 1902.8 1341.49 1900.15 1341.49 1897.57 1341.49 1895.56 1339.27 1895.56 1336.34 1895.56 1333.47 1897.5 1331.47 1900.29 1331.47Z"/><path d="M157.212 648.774 171.642 648.774M1592.03 648.774 1577.58 648.774" stroke="#000000" stroke-width="1.14583" stroke-miterlimit="3.8" fill="none" transform="matrix(1 0 0 -1 1771 1845)"/><path d="M1873.18 1183.73C1871.1 1183.73 1869.17 1184.73 1867.95 1186.23 1866.52 1188.31 1865.73 1191.39 1865.73 1195.69 1865.73 1203.57 1868.31 1207.65 1873.18 1207.65 1877.97 1207.65 1880.62 1203.57 1880.62 1195.9 1880.62 1191.39 1879.91 1188.38 1878.4 1186.23 1877.26 1184.66 1875.32 1183.73 1873.18 1183.73ZM1873.18 1186.23C1876.26 1186.23 1877.76 1189.31 1877.76 1195.62 1877.76 1202.28 1876.26 1205.36 1873.1 1205.36 1870.17 1205.36 1868.66 1202.13 1868.66 1195.76 1868.66 1189.31 1870.17 1186.23 1873.18 1186.23Z"/><path d="M1888.36 1203.57 1885 1203.57 1885 1206.93 1888.36 1206.93Z"/><path d="M1903.66 1194.69C1906.02 1193.25 1906.81 1192.11 1906.81 1189.96 1906.81 1186.23 1904.02 1183.73 1899.93 1183.73 1895.92 1183.73 1893.13 1186.23 1893.13 1189.89 1893.13 1192.11 1893.85 1193.25 1896.21 1194.69 1893.56 1196.05 1892.34 1197.91 1892.34 1200.49 1892.34 1204.71 1895.42 1207.65 1899.93 1207.65 1904.44 1207.65 1907.6 1204.71 1907.6 1200.49 1907.6 1197.91 1906.31 1196.05 1903.66 1194.69ZM1899.93 1186.23C1902.37 1186.23 1903.87 1187.67 1903.87 1189.96 1903.87 1192.18 1902.3 1193.61 1899.93 1193.61 1897.57 1193.61 1895.99 1192.18 1895.99 1189.96 1895.99 1187.67 1897.57 1186.23 1899.93 1186.23ZM1899.93 1195.97C1902.8 1195.97 1904.73 1197.84 1904.73 1200.56 1904.73 1203.35 1902.8 1205.14 1899.86 1205.14 1897.14 1205.14 1895.21 1203.28 1895.21 1200.56 1895.21 1197.84 1897.07 1195.97 1899.93 1195.97Z"/><path d="M157.212 785.361 171.642 785.361M1592.03 785.361 1577.58 785.361" stroke="#000000" stroke-width="1.14583" stroke-miterlimit="3.8" fill="none" transform="matrix(1 0 0 -1 1771 1845)"/><path d="M1899.43 1053.8 1899.43 1070.35 1902.22 1070.35 1902.22 1047.14 1900.36 1047.14C1899.43 1050.73 1898.79 1051.23 1894.42 1051.8L1894.42 1053.8Z"/><path d="M157.212 921.93 171.642 921.93M1592.03 921.93 1577.58 921.93" stroke="#000000" stroke-width="1.14583" stroke-miterlimit="3.8" fill="none" transform="matrix(1 0 0 -1 1771 1845)"/><path d="M1872.67 917.221 1872.67 933.764 1875.47 933.764 1875.47 910.561 1873.61 910.561C1872.67 914.142 1872.03 914.643 1867.66 915.216L1867.66 917.221Z"/><path d="M1888.36 930.399 1885 930.399 1885 933.764 1888.36 933.764Z"/><path d="M1907.38 930.971 1895.42 930.971C1895.71 929.038 1896.71 927.82 1899.5 926.102L1902.73 924.311C1905.88 922.593 1907.52 920.158 1907.52 917.365 1907.52 915.431 1906.74 913.641 1905.38 912.352 1904.09 911.134 1902.37 910.561 1900.22 910.561 1897.36 910.561 1895.21 911.564 1893.92 913.569 1893.13 914.787 1892.77 916.219 1892.7 918.582L1895.56 918.582C1895.64 917.007 1895.85 916.076 1896.21 915.288 1897 913.927 1898.43 913.068 1900.15 913.068 1902.73 913.068 1904.66 914.93 1904.66 917.436 1904.66 919.298 1903.59 920.874 1901.58 922.02L1898.57 923.738C1893.85 926.46 1892.49 928.68 1892.2 933.764L1907.38 933.764Z"/><path d="M157.212 1058.52 171.642 1058.52M1592.03 1058.52 1577.58 1058.52" stroke="#000000" stroke-width="1.14583" stroke-miterlimit="3.8" fill="none" transform="matrix(1 0 0 -1 1771 1845)"/><path d="M1872.67 780.638 1872.67 797.181 1875.47 797.181 1875.47 773.978 1873.61 773.978C1872.67 777.559 1872.03 778.06 1867.66 778.633L1867.66 780.638Z"/><path d="M1888.36 793.815 1885 793.815 1885 797.181 1888.36 797.181Z"/><path d="M1901.58 791.595 1901.58 797.181 1904.44 797.181 1904.44 791.595 1907.81 791.595 1907.81 789.017 1904.44 789.017 1904.44 773.978 1902.37 773.978 1892.06 788.587 1892.06 791.595ZM1901.58 789.017 1894.49 789.017 1901.58 778.776Z"/><path d="M157.212 102.66 157.212 117.108M157.212 1058.52 157.212 1044.09" stroke="#000000" stroke-width="1.14583" stroke-miterlimit="3.8" fill="none" transform="matrix(1 0 0 -1 1771 1845)"/><path d="M1914.13 1775.09 1906.53 1775.09 1906.53 1777.39 1914.13 1777.39Z"/><path d="M1924.02 1768.58 1924.02 1785.12 1926.81 1785.12 1926.81 1761.92 1924.95 1761.92C1924.02 1765.5 1923.38 1766 1919.01 1766.57L1919.01 1768.58Z"/><path d="M1949.81 1782.33 1937.85 1782.33C1938.14 1780.39 1939.14 1779.18 1941.93 1777.46L1945.15 1775.67C1948.31 1773.95 1949.95 1771.51 1949.95 1768.72 1949.95 1766.79 1949.16 1765 1947.8 1763.71 1946.51 1762.49 1944.8 1761.92 1942.65 1761.92 1939.78 1761.92 1937.63 1762.92 1936.35 1764.92 1935.56 1766.14 1935.2 1767.57 1935.13 1769.94L1937.99 1769.94C1938.06 1768.36 1938.28 1767.43 1938.64 1766.64 1939.42 1765.28 1940.86 1764.42 1942.58 1764.42 1945.15 1764.42 1947.09 1766.29 1947.09 1768.79 1947.09 1770.65 1946.01 1772.23 1944.01 1773.37L1941 1775.09C1936.27 1777.81 1934.91 1780.04 1934.63 1785.12L1949.81 1785.12Z"/><path d="M336.642 102.66 336.642 117.108M336.642 1058.52 336.642 1044.09" stroke="#000000" stroke-width="1.14583" stroke-miterlimit="3.8" fill="none" transform="matrix(1 0 0 -1 1771 1845)"/><path d="M2093.56 1775.09 2085.97 1775.09 2085.97 1777.39 2093.56 1777.39Z"/><path d="M2103.46 1768.58 2103.46 1785.12 2106.25 1785.12 2106.25 1761.92 2104.39 1761.92C2103.46 1765.5 2102.81 1766 2098.45 1766.57L2098.45 1768.58Z"/><path d="M2121.8 1761.92C2119.72 1761.92 2117.79 1762.92 2116.57 1764.42 2115.14 1766.5 2114.35 1769.58 2114.35 1773.88 2114.35 1781.75 2116.93 1785.84 2121.8 1785.84 2126.6 1785.84 2129.25 1781.75 2129.25 1774.09 2129.25 1769.58 2128.53 1766.57 2127.03 1764.42 2125.88 1762.85 2123.95 1761.92 2121.8 1761.92ZM2121.8 1764.42C2124.88 1764.42 2126.38 1767.5 2126.38 1773.8 2126.38 1780.46 2124.88 1783.54 2121.73 1783.54 2118.79 1783.54 2117.29 1780.32 2117.29 1773.95 2117.29 1767.5 2118.79 1764.42 2121.8 1764.42Z"/><path d="M515.858 102.66 515.858 117.108M515.858 1058.52 515.858 1044.09" stroke="#000000" stroke-width="1.14583" stroke-miterlimit="3.8" fill="none" transform="matrix(1 0 0 -1 1771 1845)"/><path d="M2281.69 1775.09 2274.1 1775.09 2274.1 1777.39 2281.69 1777.39Z"/><path d="M2295.81 1772.87C2298.17 1771.44 2298.96 1770.3 2298.96 1768.15 2298.96 1764.42 2296.17 1761.92 2292.09 1761.92 2288.08 1761.92 2285.28 1764.42 2285.28 1768.08 2285.28 1770.3 2286 1771.44 2288.36 1772.87 2285.71 1774.23 2284.5 1776.1 2284.5 1778.67 2284.5 1782.9 2287.58 1785.84 2292.09 1785.84 2296.6 1785.84 2299.75 1782.9 2299.75 1778.67 2299.75 1776.1 2298.46 1774.23 2295.81 1772.87ZM2292.09 1764.42C2294.52 1764.42 2296.03 1765.86 2296.03 1768.15 2296.03 1770.37 2294.45 1771.8 2292.09 1771.8 2289.72 1771.8 2288.15 1770.37 2288.15 1768.15 2288.15 1765.86 2289.72 1764.42 2292.09 1764.42ZM2292.09 1774.16C2294.95 1774.16 2296.89 1776.02 2296.89 1778.75 2296.89 1781.54 2294.95 1783.33 2292.02 1783.33 2289.29 1783.33 2287.36 1781.47 2287.36 1778.75 2287.36 1776.02 2289.22 1774.16 2292.09 1774.16Z"/><path d="M695.288 102.66 695.288 117.108M695.288 1058.52 695.288 1044.09" stroke="#000000" stroke-width="1.14583" stroke-miterlimit="3.8" fill="none" transform="matrix(1 0 0 -1 1771 1845)"/><path d="M2461.13 1775.09 2453.54 1775.09 2453.54 1777.39 2461.13 1777.39Z"/><path d="M2478.69 1767.93C2478.11 1764.14 2475.68 1761.92 2472.24 1761.92 2469.73 1761.92 2467.51 1763.13 2466.15 1765.21 2464.72 1767.5 2464.08 1770.3 2464.08 1774.52 2464.08 1778.46 2464.65 1780.89 2466.01 1782.97 2467.23 1784.83 2469.23 1785.84 2471.74 1785.84 2476.04 1785.84 2479.19 1782.61 2479.19 1778.1 2479.19 1773.8 2476.32 1770.8 2472.24 1770.8 2469.95 1770.8 2468.23 1771.66 2467.01 1773.37 2467.01 1767.57 2468.8 1764.42 2472.03 1764.42 2474.03 1764.42 2475.39 1765.71 2475.89 1767.93ZM2471.88 1773.3C2474.6 1773.3 2476.32 1775.24 2476.32 1778.32 2476.32 1781.25 2474.39 1783.33 2471.74 1783.33 2469.16 1783.33 2467.16 1781.11 2467.16 1778.17 2467.16 1775.31 2469.09 1773.3 2471.88 1773.3Z"/><path d="M874.736 102.66 874.736 117.108M874.736 1058.52 874.736 1044.09" stroke="#000000" stroke-width="1.14583" stroke-miterlimit="3.8" fill="none" transform="matrix(1 0 0 -1 1771 1845)"/><path d="M2640.57 1775.09 2632.97 1775.09 2632.97 1777.39 2640.57 1777.39Z"/><path d="M2652.61 1779.53 2652.61 1785.12 2655.47 1785.12 2655.47 1779.53 2658.84 1779.53 2658.84 1776.96 2655.47 1776.96 2655.47 1761.92 2653.4 1761.92 2643.08 1776.53 2643.08 1779.53ZM2652.61 1776.96 2645.52 1776.96 2652.61 1766.71Z"/><path d="M1053.93 102.66 1053.93 117.108M1053.93 1058.52 1053.93 1044.09" stroke="#000000" stroke-width="1.14583" stroke-miterlimit="3.8" fill="none" transform="matrix(1 0 0 -1 1771 1845)"/><path d="M2819.77 1775.09 2812.18 1775.09 2812.18 1777.39 2819.77 1777.39Z"/><path d="M2837.62 1782.33 2825.66 1782.33C2825.95 1780.39 2826.95 1779.18 2829.74 1777.46L2832.96 1775.67C2836.12 1773.95 2837.76 1771.51 2837.76 1768.72 2837.76 1766.79 2836.97 1765 2835.61 1763.71 2834.32 1762.49 2832.61 1761.92 2830.46 1761.92 2827.59 1761.92 2825.44 1762.92 2824.16 1764.92 2823.37 1766.14 2823.01 1767.57 2822.94 1769.94L2825.8 1769.94C2825.87 1768.36 2826.09 1767.43 2826.45 1766.64 2827.23 1765.28 2828.67 1764.42 2830.39 1764.42 2832.96 1764.42 2834.9 1766.29 2834.9 1768.79 2834.9 1770.65 2833.82 1772.23 2831.82 1773.37L2828.81 1775.09C2824.08 1777.81 2822.72 1780.04 2822.44 1785.12L2837.62 1785.12Z"/><path d="M1233.38 102.66 1233.38 117.108M1233.38 1058.52 1233.38 1044.09" stroke="#000000" stroke-width="1.14583" stroke-miterlimit="3.8" fill="none" transform="matrix(1 0 0 -1 1771 1845)"/><path d="M3008.72 1761.92C3006.65 1761.92 3004.71 1762.92 3003.5 1764.42 3002.06 1766.5 3001.28 1769.58 3001.28 1773.88 3001.28 1781.75 3003.85 1785.84 3008.72 1785.84 3013.52 1785.84 3016.17 1781.75 3016.17 1774.09 3016.17 1769.58 3015.46 1766.57 3013.95 1764.42 3012.81 1762.85 3010.87 1761.92 3008.72 1761.92ZM3008.72 1764.42C3011.8 1764.42 3013.31 1767.5 3013.31 1773.8 3013.31 1780.46 3011.8 1783.54 3008.65 1783.54 3005.72 1783.54 3004.21 1780.32 3004.21 1773.95 3004.21 1767.5 3005.72 1764.42 3008.72 1764.42Z"/><path d="M1412.58 102.66 1412.58 117.108M1412.58 1058.52 1412.58 1044.09" stroke="#000000" stroke-width="1.14583" stroke-miterlimit="3.8" fill="none" transform="matrix(1 0 0 -1 1771 1845)"/><path d="M3195.38 1782.33 3183.42 1782.33C3183.71 1780.39 3184.71 1779.18 3187.5 1777.46L3190.73 1775.67C3193.88 1773.95 3195.52 1771.51 3195.52 1768.72 3195.52 1766.79 3194.74 1765 3193.38 1763.71 3192.09 1762.49 3190.37 1761.92 3188.22 1761.92 3185.35 1761.92 3183.21 1762.92 3181.92 1764.92 3181.13 1766.14 3180.77 1767.57 3180.7 1769.94L3183.56 1769.94C3183.64 1768.36 3183.85 1767.43 3184.21 1766.64 3185 1765.28 3186.43 1764.42 3188.15 1764.42 3190.73 1764.42 3192.66 1766.29 3192.66 1768.79 3192.66 1770.65 3191.58 1772.23 3189.58 1773.37L3186.57 1775.09C3181.85 1777.81 3180.48 1780.04 3180.2 1785.12L3195.38 1785.12Z"/><path d="M1592.03 102.66 1592.03 117.108M1592.03 1058.52 1592.03 1044.09" stroke="#000000" stroke-width="1.14583" stroke-miterlimit="3.8" fill="none" transform="matrix(1 0 0 -1 1771 1845)"/><path d="M3369.02 1779.53 3369.02 1785.12 3371.88 1785.12 3371.88 1779.53 3375.25 1779.53 3375.25 1776.96 3371.88 1776.96 3371.88 1761.92 3369.8 1761.92 3359.49 1776.53 3359.49 1779.53ZM3369.02 1776.96 3361.93 1776.96 3369.02 1766.71Z"/><path d="M157.212 1058.52 157.212 102.66 1592.03 102.66 1592.03 1058.52Z" stroke="#000000" stroke-width="2.29167" stroke-miterlimit="3.8" fill="none" transform="matrix(1 0 0 -1 1771 1845)"/><path d="M1233.6 102.892 1233.6 1058.75" stroke="#000000" stroke-width="0.572917" stroke-miterlimit="3.8" stroke-dasharray="2.29167 4.58333" fill="none" transform="matrix(1 0 0 -1 1771 1845)"/><path d="M1812.18 1378.43 1812.18 1369.41C1812.18 1363.54 1807.74 1359.89 1800.44 1359.89 1793.2 1359.89 1788.76 1363.47 1788.76 1369.41L1788.76 1378.43ZM1809.53 1375.43 1791.41 1375.43 1791.41 1369.91C1791.41 1365.33 1794.56 1362.89 1800.51 1362.89 1806.45 1362.89 1809.53 1365.33 1809.53 1369.91Z"/><path d="M1788.41 1345.67C1788.41 1352.33 1793.35 1356.92 1800.65 1356.92 1808.03 1356.92 1812.9 1352.41 1812.9 1345.6 1812.9 1342.74 1812.04 1340.23 1810.46 1338.37 1808.31 1335.86 1804.66 1334.36 1800.87 1334.36 1793.35 1334.36 1788.41 1338.8 1788.41 1345.67ZM1791.06 1345.67C1791.06 1340.59 1794.85 1337.3 1800.8 1337.3 1806.45 1337.3 1810.32 1340.66 1810.32 1345.6 1810.32 1350.62 1806.45 1353.91 1800.65 1353.91 1794.92 1353.91 1791.06 1350.62 1791.06 1345.67Z"/><path d="M1795.64 1314.05C1794.06 1314.05 1793.63 1314.12 1792.49 1314.7 1789.84 1315.92 1788.41 1318.71 1788.41 1322.65 1788.41 1327.73 1791.06 1330.95 1795.28 1330.95 1798.15 1330.95 1799.94 1329.45 1800.72 1326.37L1802.3 1320.5C1803.02 1317.56 1804.23 1316.2 1806.02 1316.2 1807.31 1316.2 1808.6 1316.92 1809.32 1317.92 1809.96 1318.85 1810.32 1320.28 1810.32 1322.22 1810.32 1324.8 1809.68 1326.44 1808.31 1327.59 1807.31 1328.45 1806.17 1328.88 1804.73 1328.81L1804.73 1331.6C1806.88 1331.6 1808.31 1331.17 1809.6 1330.24 1811.82 1328.66 1812.9 1325.94 1812.9 1322.36 1812.9 1319.57 1812.25 1317.35 1811.11 1315.84 1809.89 1314.27 1807.81 1313.27 1805.74 1313.27 1802.87 1313.27 1800.8 1315.06 1799.86 1318.21L1798.29 1324.08C1797.57 1326.94 1796.64 1327.95 1794.85 1327.95 1792.49 1327.95 1790.91 1325.87 1790.91 1322.72 1790.91 1318.99 1792.56 1316.92 1795.64 1316.85Z"/><path d="M1788.76 1295.26C1792.99 1298.49 1798.86 1300.49 1803.87 1300.49 1808.96 1300.49 1814.76 1298.49 1818.99 1295.26L1818.99 1293.55C1814.4 1296.34 1809.03 1297.91 1803.87 1297.91 1798.79 1297.91 1793.35 1296.34 1788.76 1293.55Z"/><path d="M1800.08 1278.14C1796.78 1278.14 1794.92 1280.36 1794.92 1284.22 1794.92 1288.16 1796.93 1290.67 1800.01 1290.67 1802.66 1290.67 1803.87 1289.31 1804.88 1285.37L1805.45 1282.86C1805.95 1281 1806.6 1280.21 1807.81 1280.21 1809.39 1280.21 1810.46 1281.79 1810.46 1284.15 1810.46 1285.58 1810.03 1286.8 1809.32 1287.52 1808.82 1287.88 1808.39 1288.09 1807.17 1288.23L1807.17 1291.1C1811.04 1290.95 1812.9 1288.81 1812.9 1284.37 1812.9 1280.14 1810.82 1277.42 1807.6 1277.42 1805.09 1277.42 1803.73 1278.85 1802.94 1282.22L1802.3 1284.8C1801.8 1286.94 1801.08 1287.88 1799.86 1287.88 1798.29 1287.88 1797.36 1286.51 1797.36 1284.29 1797.36 1282.15 1798.29 1281 1800.08 1280.93Z"/><path d="M1795.35 1267.97 1795.35 1270.76 1790.77 1270.76 1790.77 1273.41 1795.35 1273.41 1795.35 1275.7 1797.57 1275.7 1797.57 1273.41 1810.25 1273.41C1811.97 1273.41 1812.9 1272.26 1812.9 1270.19 1812.9 1269.47 1812.83 1268.9 1812.68 1267.97L1810.46 1267.97C1810.53 1268.4 1810.61 1268.75 1810.61 1269.26 1810.61 1270.4 1810.25 1270.76 1809.1 1270.76L1797.57 1270.76 1797.57 1267.97Z"/><path d="M1810.61 1250.02C1810.68 1250.31 1810.68 1250.45 1810.68 1250.6 1810.68 1251.53 1810.18 1252.1 1809.39 1252.1L1799.51 1252.1C1796.5 1252.1 1794.92 1254.25 1794.92 1258.4 1794.92 1260.84 1795.57 1262.84 1796.86 1263.99 1797.72 1264.78 1798.65 1265.06 1800.37 1265.13L1800.37 1262.41C1798.29 1262.2 1797.36 1260.98 1797.36 1258.47 1797.36 1256.04 1798.29 1254.75 1799.86 1254.75L1800.58 1254.75C1801.73 1254.75 1802.16 1255.32 1802.44 1257.54 1802.94 1261.34 1803.02 1261.91 1803.45 1262.91 1804.3 1264.85 1805.74 1265.85 1807.96 1265.85 1810.96 1265.85 1812.9 1263.77 1812.9 1260.34 1812.9 1258.26 1812.18 1256.54 1810.46 1254.61 1812.18 1254.46 1812.9 1253.6 1812.9 1251.89 1812.9 1251.31 1812.83 1250.95 1812.61 1250.02ZM1806.88 1254.75C1807.81 1254.75 1808.31 1254.97 1809.1 1255.82 1810.03 1256.9 1810.61 1258.19 1810.61 1259.76 1810.61 1261.84 1809.6 1263.06 1807.89 1263.06 1806.09 1263.06 1805.24 1261.91 1804.81 1259.05 1804.45 1256.18 1804.3 1255.61 1803.87 1254.75Z"/><path d="M1795.35 1241.21 1795.35 1244 1790.77 1244 1790.77 1246.65 1795.35 1246.65 1795.35 1248.94 1797.57 1248.94 1797.57 1246.65 1810.25 1246.65C1811.97 1246.65 1812.9 1245.51 1812.9 1243.43 1812.9 1242.71 1812.83 1242.14 1812.68 1241.21L1810.46 1241.21C1810.53 1241.64 1810.61 1242 1810.61 1242.5 1810.61 1243.64 1810.25 1244 1809.1 1244L1797.57 1244 1797.57 1241.21Z"/><path d="M1804.66 1223.98C1802.08 1223.98 1800.58 1224.2 1799.29 1224.7 1796.57 1225.77 1794.92 1228.35 1794.92 1231.5 1794.92 1236.16 1798.43 1239.16 1804.02 1239.16 1809.53 1239.16 1812.9 1236.3 1812.9 1231.5 1812.9 1227.71 1810.75 1225.06 1807.1 1224.34L1807.1 1227.06C1809.32 1227.78 1810.46 1229.28 1810.46 1231.43 1810.46 1233.15 1809.68 1234.58 1808.24 1235.51 1807.31 1236.16 1806.31 1236.37 1804.66 1236.37ZM1802.51 1236.3C1799.36 1236.09 1797.36 1234.22 1797.36 1231.5 1797.36 1228.78 1799.51 1226.85 1802.51 1226.85Z"/><path d="M1800.08 1208.58C1796.78 1208.58 1794.92 1210.8 1794.92 1214.67 1794.92 1218.6 1796.93 1221.11 1800.01 1221.11 1802.66 1221.11 1803.87 1219.75 1804.88 1215.81L1805.45 1213.31C1805.95 1211.44 1806.6 1210.66 1807.81 1210.66 1809.39 1210.66 1810.46 1212.23 1810.46 1214.59 1810.46 1216.03 1810.03 1217.24 1809.32 1217.96 1808.82 1218.32 1808.39 1218.53 1807.17 1218.68L1807.17 1221.54C1811.04 1221.4 1812.9 1219.25 1812.9 1214.81 1812.9 1210.58 1810.82 1207.86 1807.6 1207.86 1805.09 1207.86 1803.73 1209.3 1802.94 1212.66L1802.3 1215.24C1801.8 1217.39 1801.08 1218.32 1799.86 1218.32 1798.29 1218.32 1797.36 1216.96 1797.36 1214.74 1797.36 1212.59 1798.29 1211.44 1800.08 1211.37Z"/><path d="M1788.76 1199.2 1812.83 1206.86 1812.83 1205.07 1788.76 1197.48Z"/><path d="M1804.66 1181.18C1802.08 1181.18 1800.58 1181.4 1799.29 1181.9 1796.57 1182.97 1794.92 1185.55 1794.92 1188.7 1794.92 1193.36 1798.43 1196.37 1804.02 1196.37 1809.53 1196.37 1812.9 1193.5 1812.9 1188.7 1812.9 1184.91 1810.75 1182.26 1807.1 1181.54L1807.1 1184.26C1809.32 1184.98 1810.46 1186.48 1810.46 1188.63 1810.46 1190.35 1809.68 1191.78 1808.24 1192.71 1807.31 1193.36 1806.31 1193.57 1804.66 1193.57ZM1802.51 1193.5C1799.36 1193.29 1797.36 1191.42 1797.36 1188.7 1797.36 1185.98 1799.51 1184.05 1802.51 1184.05Z"/><path d="M1812.18 1167.21 1788.76 1159.12 1788.76 1162.27 1808.6 1168.79 1788.76 1175.66 1788.76 1178.89 1812.18 1170.43Z"/><path d="M1818.99 1155.41C1814.76 1152.26 1808.96 1150.18 1803.87 1150.18 1798.86 1150.18 1792.99 1152.26 1788.76 1155.41L1788.76 1157.2C1793.35 1154.41 1798.79 1152.83 1803.87 1152.83 1809.03 1152.83 1814.4 1154.41 1818.99 1157.2Z"/><path d="M2565.8 1822.57 2578.54 1822.57 2578.54 1820 2565.8 1820 2565.8 1812.48 2579.05 1812.48 2579.05 1809.83 2562.79 1809.83 2562.79 1833.24 2579.62 1833.24 2579.62 1830.59 2565.8 1830.59Z"/><path d="M2583.54 1816.41 2583.54 1833.24 2586.27 1833.24 2586.27 1824.01C2586.27 1820.57 2588.06 1818.28 2590.85 1818.28 2592.93 1818.28 2594.29 1819.57 2594.29 1821.57L2594.29 1833.24 2596.94 1833.24 2596.94 1820.57C2596.94 1817.78 2594.86 1815.99 2591.64 1815.99 2589.13 1815.99 2587.48 1816.92 2586.05 1819.28L2586.05 1816.41Z"/><path d="M2615.63 1825.72C2615.63 1823.15 2615.42 1821.64 2614.92 1820.35 2613.84 1817.63 2611.27 1815.99 2608.11 1815.99 2603.46 1815.99 2600.45 1819.49 2600.45 1825.08 2600.45 1830.59 2603.32 1833.96 2608.11 1833.96 2611.91 1833.96 2614.56 1831.81 2615.28 1828.16L2612.55 1828.16C2611.84 1830.38 2610.33 1831.53 2608.19 1831.53 2606.47 1831.53 2605.03 1830.74 2604.1 1829.31 2603.46 1828.37 2603.24 1827.37 2603.24 1825.72ZM2603.32 1823.58C2603.53 1820.43 2605.39 1818.42 2608.11 1818.42 2610.84 1818.42 2612.77 1820.57 2612.77 1823.58Z"/><path d="M2619.22 1816.41 2619.22 1833.24 2621.94 1833.24 2621.94 1824.51C2621.94 1820.5 2623.59 1818.71 2627.31 1818.78L2627.31 1816.06C2626.88 1815.99 2626.6 1815.99 2626.24 1815.99 2624.52 1815.99 2623.23 1816.99 2621.66 1819.49L2621.66 1816.41Z"/><path d="M2640.65 1816.41 2640.65 1818.85C2639.29 1816.84 2637.85 1815.99 2635.71 1815.99 2631.62 1815.99 2628.83 1819.71 2628.83 1825.15 2628.83 1827.94 2629.47 1830.02 2630.91 1831.67 2632.2 1833.17 2633.77 1833.96 2635.49 1833.96 2637.57 1833.96 2639 1833.1 2640.36 1830.95L2640.36 1831.81C2640.36 1836.32 2639.14 1837.97 2635.78 1837.97 2633.56 1837.97 2632.34 1837.11 2632.05 1835.18L2629.33 1835.18C2629.62 1838.26 2632.05 1840.26 2635.71 1840.26 2638.21 1840.26 2640.29 1839.4 2641.36 1838.11 2642.65 1836.54 2643.08 1834.46 2643.08 1830.45L2643.08 1816.41ZM2635.99 1818.42C2638.78 1818.42 2640.36 1820.78 2640.36 1825.08 2640.36 1829.16 2638.78 1831.53 2635.99 1831.53 2633.2 1831.53 2631.62 1829.09 2631.62 1824.94 2631.62 1820.86 2633.2 1818.42 2635.99 1818.42Z"/><path d="M2657.98 1816.41 2653.33 1829.52 2649.03 1816.41 2646.17 1816.41 2651.82 1833.32 2650.82 1835.97C2650.39 1837.18 2649.82 1837.61 2648.67 1837.61 2648.24 1837.61 2647.81 1837.54 2647.24 1837.4L2647.24 1839.83C2647.81 1840.12 2648.32 1840.26 2649.03 1840.26 2649.89 1840.26 2650.82 1839.98 2651.54 1839.4 2652.4 1838.83 2652.9 1838.11 2653.4 1836.75L2660.85 1816.41Z"/><path d="M2678.07 1809.83C2674.85 1814.05 2672.85 1819.92 2672.85 1824.94 2672.85 1830.02 2674.85 1835.82 2678.07 1840.05L2679.79 1840.05C2677 1835.46 2675.43 1830.09 2675.43 1824.94 2675.43 1819.85 2677 1814.41 2679.79 1809.83Z"/><path d="M2697.64 1825.72C2697.64 1823.15 2697.42 1821.64 2696.92 1820.35 2695.85 1817.63 2693.27 1815.99 2690.12 1815.99 2685.46 1815.99 2682.46 1819.49 2682.46 1825.08 2682.46 1830.59 2685.32 1833.96 2690.12 1833.96 2693.91 1833.96 2696.56 1831.81 2697.28 1828.16L2694.56 1828.16C2693.84 1830.38 2692.34 1831.53 2690.19 1831.53 2688.47 1831.53 2687.04 1830.74 2686.11 1829.31 2685.46 1828.37 2685.25 1827.37 2685.25 1825.72ZM2685.32 1823.58C2685.54 1820.43 2687.4 1818.42 2690.12 1818.42 2692.84 1818.42 2694.77 1820.57 2694.77 1823.58Z"/><path d="M2711.61 1833.24 2719.7 1809.83 2716.55 1809.83 2710.03 1829.66 2703.16 1809.83 2699.94 1809.83 2708.39 1833.24Z"/><path d="M2723.41 1840.05C2726.56 1835.82 2728.64 1830.02 2728.64 1824.94 2728.64 1819.92 2726.56 1814.05 2723.41 1809.83L2721.62 1809.83C2724.42 1814.41 2725.99 1819.85 2725.99 1824.94 2725.99 1830.09 2724.42 1835.46 2721.62 1840.05Z"/><path d="M172.555 102.66 182.188 102.66 184.712 110.233 187.236 123.285 189.528 136.82 192.035 150.785 194.559 164.767 196.851 168.438 199.375 168.67 201.899 169.583 204.191 172.34 206.715 200.986 209.222 242.236 211.514 285.312 214.038 322.66 216.33 343.07 218.854 348.799 221.379 348.333 223.67 347.42 226.195 321.746 228.701 301.121 230.993 281.875 233.517 261.25 236.042 239.712 238.333 230.545 240.858 228.486 243.382 226.41 245.674 224.816 248.18 223.67 250.705 224.816 252.996 228.701 255.521 232.604 257.812 238.566 260.337 287.604 262.861 362.996 265.153 355.889 267.66 346.042 270.184 334.816 272.476 288.983 275 238.333 277.524 236.722 279.816 236.042 282.341 235.576 284.847 234.896 287.139 234.215 289.663 239.246 292.188 247.5 294.479 254.608 297.004 260.57 299.528 266.299 301.82 267.212 304.326 264.92 306.618 258.493 309.142 248.18 311.667 246.354 313.958 246.587 316.483 248.18 319.007 250.938 321.299 253.462 323.805 254.375 326.33 255.055 328.621 255.754 331.146 256.201 333.67 256.899 335.962 257.58 338.486 258.045 340.993 258.493 343.285 257.347 345.809 251.17 348.101 244.743 350.625 238.333 353.149 233.75 355.441 231.226 357.966 237.868 360.472 244.528 362.764 244.528 365.288 238.333 367.812 233.07 370.104 228.701 372.629 225.049 375.153 223.903 377.445 233.517 379.951 241.09 382.476 248.879 384.767 290.361 387.292 299.743 389.583 291.042 392.108 281.642 394.632 251.403 396.924 228.934 399.43 221.611 401.955 218.854 404.246 218.174 406.771 217.941 409.295 215.417 411.587 206.483 414.111 194.559 416.618 190.889 418.91 191.354 421.434 195.705 423.958 202.812 426.25 208.309 428.774 214.271 431.066 225.264 433.591 241.771 436.097 262.861 438.389 286.691 440.913 309.841 443.438 333.903 445.729 360.705 448.254 425.104 450.778 504.632 453.07 599.038 455.576 587.58 458.101 495 460.392 395.993 462.917 335.496 465.441 299.528 467.733 292.42 470.257 299.295 472.764 309.608 475.055 329.087 477.58 348.333 479.871 365.288 482.396 416.17 484.92 469.111 487.212 515.858 489.736 561.226 492.243 596.746 494.535 619.216 497.059 475.521 499.583 449.632 501.875 470.472 504.399 487.445 506.924 522.733 509.216 606.611 511.722 432.66 514.246 397.371 516.538 364.142 519.062 335.049 521.587 308.229 523.879 283.254 526.403 274.087 528.695 273.854 531.201 270.184 533.726 240.392 536.017 180.809 538.542 168.205 541.066 163.174 543.358 160.184 545.882 158.805 548.389 159.504 550.68 162.028 553.205 165 555.729 170.049 558.021 176.226 560.545 181.955 562.837 187.236 565.361 192.035 567.868 196.403 570.16 188.382 572.684 187.684 575.208 191.121 577.5 194.326 580.024 198.695 582.549 223.438 584.841 256.667 587.347 268.805 589.871 263.076 592.163 258.278 594.688 242.236 597.212 205.57 599.504 191.354 602.028 185.858 604.535 181.042 606.826 176.458 609.351 179.663 611.642 189.062 614.167 197.316 616.691 204.639 618.983 206.483 621.507 208.076 624.014 211.979 626.305 216.795 628.83 222.757 631.354 222.524 633.646 220.233 636.17 221.826 638.695 234.43 640.986 330.913 643.493 314.871 646.017 324.504 648.309 354.062 650.833 400.361 653.358 416.618 655.649 428.542 658.174 325.417 660.466 270.184 662.972 269.951 665.496 267.212 667.788 259.871 670.312 253.229 672.837 247.267 675.129 248.879 677.653 253.695 680.16 254.375 682.451 255.754 684.976 309.841 687.5 437.708 689.792 400.576 692.316 339.847 694.841 293.799 697.132 301.587 699.639 311.434 701.93 349.479 704.455 392.108 706.979 467.267 709.271 323.358 711.795 313.045 714.32 310.055 716.611 317.861 719.118 351.538 721.642 371.483 723.934 375.153 726.458 382.028 728.983 379.951 731.274 368.045 733.799 357.966 736.305 324.736 738.597 314.424 741.121 310.754 743.413 313.726 745.938 371.716 748.462 369.639 750.754 299.743 753.278 236.722 755.785 234.43 758.076 231.924 760.601 229.399 763.125 227.34 765.417 228.021 770.466 230.778 772.757 232.139 775.264 233.75 777.788 235.576 780.08 237.42" stroke="#9300D3" stroke-width="1.14583" stroke-miterlimit="3.8" fill="none" transform="matrix(1 0 0 -1 1771 1845)"/><path d="M780.08 237.42 785.129 241.538 787.42 243.597 789.945 245.889 792.236 305.705 794.743 447.788 797.267 406.538 799.559 281.41 802.083 275.233 804.608 276.146 806.899 277.292 809.424 279.118 811.93 279.816 814.222 280.729 816.746 284.167 819.271 280.496 821.562 258.958 824.087 260.57 826.611 301.587 828.903 423.493 831.41 342.371 833.701 320.833 836.226 299.976 838.75 280.264 841.042 261.93 843.566 227.788 846.091 206.715 848.382 209.455 850.889 216.795 853.413 222.524 855.705 221.826 858.229 220.68 860.754 219.767 863.045 218.854 865.57 218.389 868.076 223.67 870.368 236.955 872.892 251.618 875.184 268.805 877.708 306.851 880.233 340.993 882.524 353.382 885.049 393.486 887.555 360.024 889.847 343.07 892.371 327.708 894.896 335.264 897.188 335.049 899.712 333.438 902.236 334.351 904.528 352.236 907.035 361.618 909.559 381.795 911.851 384.087 914.375 395.08 916.667 415.938 919.191 437.243 921.716 466.354 924.007 505.312 926.514 458.101 929.038 445.729 931.33 395.993 933.854 406.091 936.379 416.618 938.67 483.309 941.195 528.462 943.701 555.264 945.993 566.722 948.517 553.205 951.042 538.542 953.333 489.271 955.858 443.438 958.382 447.341 960.674 528.229 963.18 549.087 965.472 383.174 967.996 425.104 970.521 478.278 972.812 557.788 975.337 713.389 977.861 497.059 980.153 454.216 982.66 417.764 985.184 412.733 987.476 416.17 990 419.142 992.524 421.201 994.816 423.958 997.341 436.795 999.847 453.285 1002.14 518.597 1004.66 537.629 1006.95 541.514 1009.48 569.014 1012 485.153 1014.3 404.479 1016.82 407.917 1019.33 426.483 1021.62 355.208 1024.14 313.045 1026.67 329.087 1028.96 451.458 1031.48 488.125 1034.01 529.142 1036.3 566.722 1038.81 539.92 1041.33 574.528 1043.62 573.149 1046.15 562.371 1048.44 552.292 1050.96 534.424 1053.49 515.858 1055.78 487.892 1058.28 480.337 1060.81 406.305 1063.1 387.292 1065.62 407.684 1068.15 430.833 1070.44 444.351 1072.97 472.996 1075.47 522.5 1077.76 554.118 1080.29 565.361 1082.81 591.716 1085.1 586.899 1087.63 579.792 1090.15 573.382 1092.44 553.67 1094.95 533.493 1097.24 528.462 1099.77 523.18 1102.29 518.597 1104.58 511.274 1107.11 498.903 1109.63 480.57 1111.92 468.646 1114.43 459.945 1116.95 455.361 1119.25 457.653 1121.77 461.305 1124.3 477.347 1126.59 498.205 1129.11 484.92 1131.62 460.392 1133.91 434.951 1136.43 414.111 1138.73 408.597 1143.77 394.847 1146.07 392.108 1148.59 374.222 1151.1 625.392 1153.39 682.684 1155.91 594.455 1158.44 533.045 1160.73 477.132 1163.25 435.649 1165.78 424.424 1168.07 388.67 1170.58 368.278 1173.1 357.035 1175.39 348.566 1177.92 340.778 1180.21 338.934 1182.73 335.729 1185.26 329.535 1187.55 325.882 1190.06 328.621 1192.58 332.524 1194.87 328.174 1197.4 313.278 1199.92 312.132 1202.21 307.549 1204.74 250.024 1207.24 222.292 1209.53 206.715 1212.06 192.733 1214.58 282.108 1216.88 481.25 1219.4 191.354 1221.92 157.66 1224.22 204.639 1226.72 254.142 1229.01 282.341 1231.54 136.354 1234.06 103.59 1236.35 102.66 1260.88 102.66 1263.39 117.108 1265.68 242.004 1268.2 387.972 1270.5 456.955 1273.02 493.854 1275.55 514.479 1277.84 527.996 1280.36 547.476 1282.87 574.062 1285.16 602.028 1287.68 602.941 1290.21 619.43 1292.5 633.879 1295.02 612.108 1297.55 605 1299.84 636.618 1302.35 676.042 1304.87 686.354 1307.16 650.601 1309.69 645.785 1311.98 647.396 1314.5 662.757 1317.03 682.451 1319.32 700.785 1321.83 718.67 1324.35 738.597 1326.64 790.625 1329.17 842.42 1331.69 863.726 1333.98 879.535 1336.51 869.007 1339.01 832.788 1341.31 828.438 1343.83 855.024 1346.35 805.288 1348.65 942.788 1351.17 278.438 1353.69 272.708 1355.99 273.621 1358.49 287.837 1360.78 301.587 1363.31 308.462 1365.83 289.663 1368.12 272.708 1370.65 261.25 1373.17 256.667 1375.47 255.986 1377.97 254.84 1380.5 257.347 1382.79 278.903 1385.31 318.309 1387.84 352.917 1390.13 374.688 1392.65 426.017 1395.16 694.375 1397.45 423.958 1399.98 432.212 1402.27 438.854 1404.79 454.216 1407.32 497.059 1409.61 517.684 1412.13 520.889 1414.64 520.889 1416.93 512.868 1419.45 537.396 1421.98 519.976 1424.27 544.504 1426.8 555.729 1429.32 588.278 1431.61 577.267 1434.12 537.629 1436.64 513.333 1438.93 514.945 1441.46 442.292 1443.98 389.816 1446.27 368.493 1448.8 355.674 1451.09 340.778 1453.6 319.222 1456.12 296.305 1458.41 286.924 1460.94 285.312 1463.46 288.517 1465.75 366.667 1468.28 300.208 1470.78 293.101 1473.08 280.049 1475.6 266.066 1478.12 254.142 1480.42 245.674 1482.94 244.976 1485.23 243.149 1487.76 241.538 1490.26 239.945 1492.56 226.41 1495.08 207.629 1497.6 187.684 1499.9 171.642 1502.42 167.972 1504.94 165.233 1507.24 160.649 1509.74 155.368 1512.27 153.309 1514.56 170.962 1517.08 185.858 1519.61 170.049 1521.9 153.076 1524.42 139.559 1526.93 125.361 1529.22 110.68 1531.75 102.66 1541.38 102.66" stroke="#9300D3" stroke-width="1.14583" stroke-miterlimit="3.8" fill="none" transform="matrix(1 0 0 -1 1771 1845)"/><path d="M157.212 1058.52 157.212 102.66 1592.03 102.66 1592.03 1058.52Z" stroke="#000000" stroke-width="2.29167" stroke-miterlimit="3.8" fill="none" transform="matrix(1 0 0 -1 1771 1845)"/><path d="M2609.87 742.038 2612.3 749.056 2615.67 749.056 2607.43 725.638 2603.56 725.638 2595.26 749.056 2598.41 749.056 2600.84 742.038ZM2609.08 739.531 2601.63 739.531 2605.5 728.861Z"/><path d="M2624.25 732.227 2621.46 732.227 2621.46 727.643 2618.81 727.643 2618.81 732.227 2616.51 732.227 2616.51 734.447 2618.81 734.447 2618.81 747.123C2618.81 748.841 2619.95 749.772 2622.03 749.772 2622.74 749.772 2623.32 749.701 2624.25 749.557L2624.25 747.337C2623.82 747.409 2623.46 747.481 2622.96 747.481 2621.81 747.481 2621.46 747.123 2621.46 745.977L2621.46 734.447 2624.25 734.447Z"/><path d="M2633.74 731.797C2629.01 731.797 2626.15 735.163 2626.15 740.749 2626.15 746.478 2629.01 749.772 2633.74 749.772 2638.54 749.772 2641.33 746.406 2641.33 740.892 2641.33 735.091 2638.61 731.797 2633.74 731.797ZM2633.74 734.232C2636.75 734.232 2638.61 736.738 2638.61 740.892 2638.61 744.831 2636.75 747.337 2633.74 747.337 2630.8 747.337 2628.94 744.831 2628.94 740.749 2628.94 736.738 2630.8 734.232 2633.74 734.232Z"/><path d="M2645.06 732.227 2645.06 749.056 2647.78 749.056 2647.78 738.529C2647.78 736.094 2649.57 734.089 2651.72 734.089 2653.73 734.089 2654.87 735.306 2654.87 737.455L2654.87 749.056 2657.52 749.056 2657.52 738.529C2657.52 736.094 2659.31 734.089 2661.46 734.089 2663.47 734.089 2664.61 735.378 2664.61 737.455L2664.61 749.056 2667.26 749.056 2667.26 736.452C2667.26 733.444 2665.54 731.797 2662.39 731.797 2660.17 731.797 2658.81 732.442 2657.24 734.304 2656.23 732.513 2654.87 731.797 2652.72 731.797 2650.5 731.797 2649 732.585 2647.57 734.59L2647.57 732.227Z"/><path d="M2694.74 746.263 2682.78 746.263C2683.07 744.33 2684.07 743.112 2686.87 741.393L2690.09 739.603C2693.24 737.884 2694.89 735.449 2694.89 732.656 2694.89 730.723 2694.1 728.932 2692.74 727.643 2691.45 726.426 2689.73 725.853 2687.58 725.853 2684.72 725.853 2682.57 726.856 2681.28 728.861 2680.49 730.078 2680.13 731.511 2680.06 733.874L2682.93 733.874C2683 732.298 2683.21 731.367 2683.57 730.58 2684.36 729.219 2685.79 728.36 2687.51 728.36 2690.09 728.36 2692.02 730.221 2692.02 732.728 2692.02 734.59 2690.95 736.166 2688.94 737.311L2685.93 739.03C2681.21 741.751 2679.85 743.971 2679.56 749.056L2694.74 749.056Z"/></g></g></g><text font-family="Yu Gothic,Yu Gothic_MSFontService,sans-serif" font-weight="400" font-size="83" transform="matrix(1 0 0 1 343.73 926)"></text><text font-family="Yu Gothic,Yu Gothic_MSFontService,sans-serif" font-weight="400" font-size="83" transform="matrix(1 0 0 1 2009.17 924)"></text></g></svg>